<?xml version="1.0" encoding="UTF-8" standalone="no"?>
<!DOCTYPE svg PUBLIC "-//W3C//DTD SVG 1.1//EN" "http://www.w3.org/Graphics/SVG/1.1/DTD/svg11.dtd">
<svg xmlns="http://www.w3.org/2000/svg" version="1.1" viewBox="0.00 0.00 475.00 475.00">
<path fill="#301d00" d="
  M 125.87 130.33
  Q 134.88 127.13 143.30 128.88
  A 0.56 0.55 -72.1 0 1 143.69 129.65
  Q 143.22 130.69 143.69 131.52
  A 1.63 1.61 -1.7 0 0 144.40 132.18
  Q 150.80 135.37 153.32 141.98
  A 0.81 0.80 62.9 0 0 154.51 142.37
  Q 157.65 140.33 159.13 136.53
  A 0.51 0.51 0.0 0 1 160.11 136.76
  C 159.13 146.59 150.18 155.36 142.24 160.19
  A 0.26 0.26 0.0 0 0 142.40 160.67
  C 144.34 160.47 148.49 159.13 150.83 160.29
  A 1.63 1.63 0.0 0 1 151.54 161.00
  C 152.92 163.79 146.92 168.81 145.04 169.92
  A 4.95 4.81 3.4 0 0 143.73 171.05
  Q 143.69 171.10 137.99 177.74
  Q 130.75 186.18 129.05 197.50
  A 0.19 0.18 -21.9 0 0 129.38 197.64
  C 131.40 194.97 133.00 191.91 135.78 191.15
  A 1.10 1.09 -5.8 0 1 137.17 192.28
  Q 136.61 200.10 136.61 211.96
  Q 136.61 213.51 138.63 218.41
  Q 139.10 219.53 139.22 223.59
  A 13.16 12.93 -52.6 0 0 139.51 225.92
  L 139.88 227.57
  A 0.60 0.60 0.0 0 1 139.04 228.24
  L 138.55 228.01
  Q 137.30 225.07 134.46 223.57
  A 1.63 1.61 54.6 0 0 133.49 223.40
  L 128.18 224.10
  A 4.84 4.70 45.8 0 1 126.74 224.06
  C 121.94 223.17 118.58 220.42 114.64 218.17
  Q 109.99 215.51 107.21 213.32
  Q 91.84 201.21 79.62 184.54
  C 76.81 180.71 73.56 174.98 71.66 172.06
  Q 69.53 168.77 68.39 167.43
  Q 66.34 165.01 65.14 162.82
  Q 63.50 159.84 59.98 156.09
  Q 50.29 145.77 48.93 144.63
  Q 44.36 140.77 42.44 138.45
  A 5.70 5.52 86.9 0 0 41.35 137.44
  L 38.01 135.11
  Q 45.68 136.23 51.53 141.50
  A 0.69 0.69 0.0 0 0 52.68 140.86
  Q 51.53 134.65 51.89 128.40
  A 0.62 0.62 0.0 0 0 50.87 127.90
  L 48.35 130.09
  A 1.26 1.26 0.0 0 1 46.32 129.51
  C 46.01 128.63 45.76 127.15 45.82 126.01
  Q 46.13 120.23 45.30 113.23
  C 44.50 106.38 41.38 102.24 36.85 96.99
  A 0.52 0.52 0.0 0 0 35.94 97.27
  L 35.18 103.03
  A 0.82 0.82 0.0 0 1 33.94 103.63
  Q 25.94 98.83 20.52 91.51
  A 0.39 0.39 0.0 0 0 19.84 91.62
  Q 19.20 93.62 17.35 99.51
  C 15.10 106.72 14.73 112.84 15.42 120.56
  A 0.86 0.86 0.0 0 1 13.96 121.24
  L 11.58 118.85
  A 0.50 0.50 0.0 0 0 10.73 119.20
  L 10.63 135.14
  A 0.83 0.83 0.0 0 0 12.16 135.60
  Q 13.06 134.24 14.16 133.38
  A 0.20 0.19 -10.7 0 1 14.47 133.59
  L 11.83 141.51
  Q 10.90 147.78 10.14 154.27
  Q 9.44 160.16 9.35 166.25
  Q 9.03 188.32 9.92 209.93
  Q 10.11 214.59 12.51 229.08
  A 0.86 0.67 38.0 0 0 12.54 229.20
  L 16.10 240.45
  A 1.69 1.08 -78.5 0 0 16.17 240.64
  L 18.27 245.77
  A 0.23 0.22 69.4 0 0 18.55 245.90
  L 18.56 245.90
  A 0.18 0.17 75.2 0 0 18.66 245.71
  L 17.50 239.00
  Q 19.82 248.29 24.53 256.48
  Q 28.37 263.16 30.32 266.41
  Q 31.81 268.88 37.18 275.28
  A 0.04 0.04 0.0 0 1 37.15 275.35
  L 36.90 275.31
  A 0.26 0.26 0.0 0 0 36.66 275.73
  Q 37.88 277.30 39.13 278.74
  Q 45.02 285.56 50.05 289.01
  Q 50.64 289.41 54.27 291.62
  C 60.17 295.22 68.56 297.43 74.65 300.44
  Q 76.07 301.14 77.57 303.63
  A 0.98 0.97 48.0 0 1 77.52 304.69
  L 75.60 307.28
  A 0.54 0.54 0.0 0 0 76.00 308.14
  L 86.44 308.73
  A 0.79 0.77 28.2 0 0 86.96 308.58
  Q 87.96 307.84 91.06 307.88
  C 94.35 307.91 96.47 307.16 99.43 305.56
  A 2.33 2.04 -25.5 0 1 102.59 306.45
  Q 102.98 307.45 102.07 308.86
  Q 99.92 312.18 96.96 315.45
  A 0.63 0.63 0.0 0 0 97.64 316.47
  C 99.94 315.66 102.28 315.61 104.64 314.04
  Q 108.28 311.62 112.82 309.47
  Q 115.17 310.97 111.22 314.76
  A 0.22 0.22 0.0 0 0 111.40 315.14
  Q 112.22 315.07 113.43 314.45
  A 1.13 1.13 0.0 0 1 115.08 315.46
  L 115.05 320.47
  A 0.57 0.53 65.8 0 1 114.96 320.74
  L 109.27 328.43
  A 0.59 0.59 0.0 0 0 109.84 329.36
  Q 117.36 328.22 124.80 330.71
  A 0.86 0.80 47.0 0 0 125.22 330.74
  L 136.38 328.28
  A 0.58 0.58 0.0 0 0 136.69 327.33
  L 128.57 318.06
  A 1.05 1.03 84.0 0 0 128.29 317.83
  L 124.91 316.05
  A 1.05 1.03 -61.7 0 1 124.49 314.62
  C 125.28 313.19 126.76 312.30 128.50 312.33
  Q 140.91 312.59 150.67 319.56
  Q 152.41 320.81 151.62 322.57
  Q 146.13 322.28 142.54 320.70
  Q 136.99 318.27 134.44 318.20
  A 0.22 0.22 0.0 0 0 134.31 318.60
  Q 134.82 318.97 140.35 324.55
  Q 142.77 327.00 142.37 330.31
  A 1.42 1.41 -9.7 0 1 141.58 331.42
  Q 135.10 334.53 131.03 335.82
  C 126.02 337.42 122.32 340.06 118.99 343.71
  A 0.26 0.26 0.0 0 0 119.31 344.10
  C 122.20 342.38 125.82 340.94 128.90 342.18
  A 1.77 1.76 27.3 0 1 129.73 344.76
  Q 125.54 351.35 122.48 358.53
  Q 120.59 362.95 120.15 368.78
  Q 119.44 378.08 119.54 380.01
  Q 120.30 394.85 127.27 408.04
  Q 129.13 411.55 132.03 416.23
  Q 139.44 428.17 152.60 434.58
  Q 153.16 434.85 153.41 435.70
  L 154.47 437.81
  A 1.35 1.33 37.9 0 1 154.59 438.73
  C 152.92 446.18 152.78 452.07 159.27 457.15
  A 2.72 2.68 72.0 0 0 160.08 457.57
  Q 164.65 458.93 169.33 457.50
  Q 184.08 457.73 198.93 457.67
  Q 200.59 457.66 202.16 457.51
  Q 204.15 457.32 205.36 457.32
  Q 302.00 457.40 371.52 457.34
  C 375.87 457.34 377.05 454.17 379.20 450.27
  Q 382.52 444.20 377.69 439.65
  A 1.26 1.24 20.2 0 1 377.30 438.82
  L 377.21 437.22
  Q 380.10 432.41 384.81 428.59
  Q 389.04 425.17 390.11 423.77
  Q 391.53 421.92 396.48 415.08
  Q 397.83 413.22 397.92 411.43
  Q 398.16 406.90 401.83 406.65
  A 0.64 0.63 1.7 0 0 402.41 406.11
  Q 402.88 402.89 405.02 400.53
  Q 407.78 396.63 408.63 394.60
  Q 416.25 376.38 416.59 357.26
  Q 416.88 341.00 404.12 330.37
  A 1.33 1.32 12.3 0 1 403.68 329.69
  Q 403.39 328.58 405.55 327.52
  A 0.48 0.48 0.0 0 0 405.62 326.70
  L 399.31 322.04
  A 1.70 1.70 0.0 0 1 399.68 319.10
  L 405.45 316.74
  A 0.71 0.71 0.0 0 0 405.47 315.44
  L 399.27 312.63
  A 0.88 0.86 53.8 0 0 398.79 312.55
  Q 390.86 313.21 383.25 315.65
  Q 376.84 316.76 370.41 317.11
  Q 368.20 317.24 365.68 317.91
  Q 362.93 318.65 359.51 318.00
  C 349.27 316.05 338.99 314.13 331.64 307.04
  Q 328.29 303.81 321.97 294.38
  A 8.69 8.45 5.5 0 0 320.80 293.00
  Q 318.44 290.73 317.44 286.94
  C 316.62 283.80 313.29 283.86 311.37 281.63
  A 4.65 4.59 -76.9 0 1 310.62 280.41
  L 305.85 268.74
  A 1.98 1.94 -48.1 0 1 305.79 267.41
  Q 306.24 265.94 308.50 268.02
  C 310.19 269.57 311.52 273.34 314.32 275.39
  A 3.43 3.38 65.8 0 0 315.94 276.02
  C 319.60 276.42 324.40 277.00 328.70 276.94
  C 339.18 276.78 349.55 277.44 359.26 277.34
  Q 394.51 276.97 405.43 276.72
  Q 406.97 276.69 410.28 275.93
  A 0.56 0.26 19.9 0 1 410.39 275.92
  L 415.68 275.73
  A 0.86 0.85 9.3 0 0 416.45 275.18
  L 419.36 267.44
  A 1.52 1.51 -39.5 0 0 419.44 266.64
  Q 418.78 263.10 417.74 260.80
  Q 414.40 253.37 412.85 248.62
  C 411.69 245.10 410.18 242.33 409.07 239.20
  A 8.23 7.78 -71.7 0 0 408.42 237.81
  Q 406.51 234.64 405.85 232.75
  C 404.14 227.90 401.81 224.62 399.21 219.06
  A 0.53 0.52 -47.8 0 0 398.24 219.11
  Q 395.48 226.99 390.30 231.81
  A 5.25 5.12 12.1 0 1 388.60 232.88
  C 387.19 233.43 380.65 238.12 380.24 232.64
  C 379.87 227.54 379.66 222.33 376.97 217.84
  A 0.45 0.45 0.0 0 0 376.13 218.01
  Q 374.95 226.80 368.55 232.09
  A 5.73 5.53 87.4 0 0 367.42 233.37
  C 366.09 235.48 365.13 239.97 361.41 238.08
  Q 360.38 237.56 359.67 235.50
  Q 357.06 227.90 353.52 221.15
  Q 355.15 221.05 356.88 222.31
  C 359.22 224.03 361.13 228.22 362.70 230.75
  A 0.28 0.28 0.0 0 0 363.22 230.61
  C 363.37 226.57 363.60 221.78 365.19 218.46
  A 0.61 0.61 0.0 0 1 366.26 218.41
  Q 368.99 222.87 368.07 227.43
  A 0.18 0.18 0.0 0 0 368.41 227.54
  C 370.61 222.53 370.90 215.43 371.61 211.63
  Q 371.87 210.22 372.95 208.74
  A 1.14 1.14 0.0 0 1 374.95 209.07
  L 377.17 216.09
  A 0.53 0.52 -1.9 0 0 377.55 216.44
  Q 380.43 217.07 381.69 220.06
  Q 383.52 224.39 384.07 229.40
  A 0.44 0.43 -17.2 0 0 384.71 229.73
  C 390.67 226.55 393.51 216.80 394.12 210.46
  Q 394.67 204.67 394.71 198.90
  A 9.65 9.51 37.0 0 0 394.28 196.00
  Q 392.88 191.52 391.58 184.57
  C 391.30 183.09 390.57 182.00 389.41 180.89
  A 0.31 0.31 0.0 0 1 389.71 180.36
  C 393.44 181.41 396.57 182.98 398.64 186.32
  C 401.19 190.42 403.25 192.21 407.56 195.40
  A 5.90 5.51 -13.3 0 0 408.80 196.11
  C 415.56 199.07 425.65 201.64 433.43 199.61
  A 0.37 0.37 0.0 0 0 433.56 198.95
  L 427.27 194.30
  A 7.20 7.09 2.1 0 1 425.50 192.42
  Q 423.66 189.54 419.89 182.65
  Q 418.73 180.53 419.31 177.56
  A 0.59 0.59 0.0 0 0 418.93 176.90
  L 417.04 176.18
  A 0.83 0.83 0.0 0 1 417.02 174.63
  C 420.86 173.10 424.55 173.01 429.35 172.61
  A 4.84 4.10 -49.7 0 0 430.13 172.48
  L 441.48 169.58
  A 1.39 1.29 15.5 0 0 442.04 169.29
  L 447.84 164.21
  A 0.90 0.89 -31.0 0 0 448.09 163.22
  C 446.72 159.54 444.16 157.01 442.22 153.70
  Q 440.33 150.47 434.87 142.90
  A 5.39 5.27 0.9 0 0 433.67 141.69
  C 431.96 140.44 429.34 138.53 430.56 136.16
  A 0.99 0.98 -81.7 0 1 431.25 135.64
  L 443.34 133.25
  A 1.61 1.19 -53.7 0 0 443.66 133.15
  L 451.19 129.94
  A 6.22 6.21 -82.1 0 0 453.61 128.11
  Q 457.26 123.57 462.42 119.82
  A 0.18 0.18 0.0 0 0 462.34 119.50
  L 444.70 117.18
  A 4.14 4.04 60.4 0 1 443.49 116.83
  C 435.86 113.27 430.34 110.52 425.69 103.07
  Q 422.22 97.51 421.52 96.71
  Q 415.68 89.98 414.75 88.99
  C 413.70 87.87 413.59 86.01 413.03 85.18
  A 1.62 1.61 -20.6 0 0 411.46 84.47
  L 387.49 87.62
  A 1.87 1.50 -51.3 0 0 387.09 87.71
  Q 382.86 89.05 381.44 89.17
  Q 374.88 89.76 367.97 91.70
  Q 366.94 91.99 365.82 91.92
  A 0.64 0.64 0.0 0 1 365.60 90.70
  Q 372.94 87.43 380.31 86.18
  A 4.93 4.88 28.6 0 0 381.28 85.90
  L 387.19 83.48
  A 2.12 2.09 -78.2 0 0 387.88 83.02
  L 394.01 76.89
  A 0.28 0.28 0.0 0 0 393.83 76.42
  Q 383.87 75.79 380.33 75.88
  C 378.45 75.93 376.31 75.32 375.05 74.46
  A 2.58 2.58 0.0 0 1 373.99 71.73
  C 374.84 68.10 376.83 67.06 379.20 64.67
  Q 388.75 55.01 400.60 46.43
  A 0.43 0.43 0.0 0 0 400.25 45.66
  L 396.22 46.54
  A 1.50 1.43 40.1 0 1 395.71 46.57
  Q 391.34 46.14 386.99 46.82
  A 10.27 10.22 -39.4 0 1 381.92 46.34
  Q 378.75 45.20 373.76 43.66
  C 367.04 41.59 360.14 44.91 355.11 45.50
  Q 351.41 45.94 347.89 47.32
  Q 347.04 47.65 340.74 49.43
  A 18.51 18.22 22.4 0 0 337.05 50.93
  Q 331.52 53.92 323.83 57.15
  Q 320.39 58.59 318.91 59.67
  C 315.45 62.18 313.66 63.73 310.84 64.72
  A 0.57 0.57 0.0 0 1 310.10 64.05
  Q 310.78 61.26 311.92 59.22
  C 314.19 55.17 314.34 51.30 316.03 47.01
  Q 316.97 44.65 318.32 39.64
  Q 319.52 35.21 320.99 30.09
  A 0.51 0.51 0.0 0 0 320.12 29.60
  Q 317.90 32.07 311.21 39.70
  Q 301.03 51.34 288.47 59.69
  C 286.52 60.98 286.19 62.14 283.41 62.26
  A 0.30 0.30 0.0 0 1 283.12 61.83
  Q 284.10 59.71 284.04 56.42
  Q 283.93 50.56 284.22 42.65
  A 0.39 0.39 0.0 0 0 283.62 42.31
  C 273.48 49.01 267.56 52.20 259.61 58.42
  Q 254.40 62.50 249.79 65.16
  A 3.57 3.39 7.8 0 0 249.25 65.55
  L 246.39 68.05
  A 0.84 0.84 0.0 0 1 245.01 67.60
  C 243.88 62.49 243.24 58.43 241.22 54.54
  A 0.80 0.79 49.9 0 0 239.89 54.42
  Q 233.18 63.15 226.00 70.25
  Q 225.14 71.09 225.01 71.17
  A 0.48 0.48 0.0 0 1 224.31 70.61
  L 226.56 63.97
  A 0.47 0.47 0.0 0 0 225.81 63.47
  Q 223.92 65.13 222.06 66.37
  C 220.47 67.43 218.67 67.11 218.25 65.24
  Q 216.85 59.08 217.38 52.85
  A 0.57 0.57 0.0 0 0 216.40 52.40
  Q 209.83 59.08 201.30 65.10
  Q 199.30 66.51 193.89 67.15
  Q 183.94 68.32 176.60 65.22
  C 173.20 63.78 169.76 63.09 166.54 60.76
  A 0.25 0.24 -1.2 0 0 166.20 61.11
  C 168.26 63.70 171.90 68.54 172.36 71.94
  A 2.81 2.81 0.0 0 1 170.47 74.99
  C 167.80 75.88 164.94 76.64 161.94 78.55
  Q 155.42 82.70 149.14 85.91
  A 2.46 2.44 9.8 0 0 148.61 86.28
  L 141.07 93.16
  A 0.37 0.36 -74.5 0 0 141.42 93.78
  Q 146.32 92.31 150.59 92.57
  A 1.08 1.08 0.0 0 1 151.40 94.27
  Q 145.32 102.88 141.77 106.90
  C 139.15 109.87 137.67 113.33 135.13 116.52
  Q 134.35 117.50 133.59 117.36
  Q 132.83 117.21 132.00 116.35
  Q 134.54 106.62 141.72 99.00
  A 0.22 0.21 -74.1 0 0 141.52 98.64
  Q 135.47 99.94 130.22 103.66
  A 0.34 0.33 -17.5 0 1 129.69 103.39
  L 129.72 98.67
  A 3.00 2.98 -29.4 0 1 130.14 97.18
  C 130.69 96.24 131.34 95.08 132.26 94.10
  Q 144.47 81.00 160.71 73.55
  C 162.81 72.58 164.64 72.22 166.29 71.13
  A 0.59 0.58 55.6 0 0 166.44 70.31
  L 161.38 63.05
  A 1.37 1.25 -73.4 0 1 161.21 62.70
  L 158.70 54.63
  A 1.15 1.15 0.0 0 1 160.38 53.29
  Q 160.70 53.48 169.78 58.56
  Q 172.89 60.30 175.34 61.11
  C 178.48 62.15 180.40 63.08 183.13 63.50
  Q 191.57 64.80 199.26 61.26
  Q 201.81 60.08 203.71 58.56
  C 205.84 56.85 208.98 54.80 211.48 52.37
  C 213.73 50.17 216.78 46.60 219.22 50.39
  A 0.76 0.74 27.7 0 1 219.34 50.76
  L 220.03 62.84
  A 0.88 0.88 0.0 0 0 221.44 63.50
  Q 230.57 56.70 239.36 48.19
  A 1.24 1.24 0.0 0 1 241.04 48.14
  Q 245.79 52.26 246.27 58.77
  Q 246.56 62.73 246.70 63.95
  A 0.66 0.65 59.6 0 0 247.88 64.26
  Q 250.69 60.42 253.21 57.81
  Q 255.39 55.55 259.72 52.65
  Q 271.64 44.64 285.19 37.40
  A 1.12 1.12 0.0 0 1 286.84 38.37
  L 287.04 56.14
  A 0.43 0.43 0.0 0 0 287.74 56.47
  Q 294.67 50.89 300.56 44.55
  Q 314.09 29.98 326.85 14.31
  A 0.32 0.32 0.0 0 1 327.42 14.51
  Q 327.22 36.35 318.57 56.26
  A 0.21 0.21 0.0 0 0 318.88 56.52
  C 335.34 46.64 354.53 39.32 373.35 38.16
  A 0.94 0.93 -81.8 0 0 374.17 37.54
  C 377.24 29.02 380.54 18.87 385.40 10.99
  A 0.94 0.93 29.9 0 1 386.65 10.66
  C 391.49 13.34 393.47 35.03 393.84 40.46
  A 0.45 0.45 0.0 0 0 394.31 40.88
  L 412.04 39.87
  A 0.15 0.15 0.0 0 1 412.16 40.12
  L 393.22 59.06
  A 2.07 2.05 68.0 0 0 392.62 60.49
  L 392.55 71.49
  A 0.64 0.62 11.3 0 0 392.96 72.09
  L 400.62 74.97
  A 0.40 0.40 0.0 0 1 400.80 75.58
  L 395.87 82.25
  A 0.20 0.20 0.0 0 0 396.06 82.57
  Q 399.87 81.98 406.38 81.14
  C 412.21 80.38 416.48 79.24 417.51 85.71
  A 1.44 1.38 -72.3 0 0 417.87 86.45
  Q 425.60 94.53 427.93 98.80
  C 436.94 115.35 454.21 115.90 470.81 113.96
  A 0.33 0.33 0.0 0 1 471.14 114.43
  C 464.95 127.21 450.89 134.99 437.46 138.02
  A 0.32 0.32 0.0 0 0 437.30 138.55
  Q 443.99 145.74 449.28 153.45
  Q 451.94 157.33 453.27 161.48
  C 456.14 170.46 443.35 172.94 437.71 174.95
  A 0.56 0.55 58.9 0 0 437.49 175.85
  Q 443.63 182.44 445.22 191.78
  C 447.85 207.30 445.43 223.75 441.58 239.07
  A 6.07 5.97 50.9 0 0 441.41 240.86
  C 441.96 251.76 438.32 260.42 432.56 269.01
  A 0.43 0.42 11.1 0 0 433.00 269.66
  Q 434.06 269.43 435.33 270.08
  A 0.72 0.72 0.0 0 1 435.68 270.93
  C 435.03 273.01 435.02 276.37 433.98 278.70
  Q 430.04 287.52 425.26 292.27
  Q 422.29 295.23 417.85 299.55
  C 412.45 304.80 407.65 307.95 401.70 311.18
  A 0.41 0.41 0.0 0 0 401.87 311.95
  L 409.11 312.51
  A 0.41 0.41 0.0 0 1 409.43 313.12
  L 407.48 316.52
  A 2.52 2.50 2.1 0 1 406.43 317.49
  L 401.06 320.14
  A 0.89 0.89 0.0 0 0 401.11 321.76
  Q 404.03 323.01 409.04 324.95
  Q 411.13 325.76 412.27 327.85
  A 0.61 0.61 0.0 0 1 411.97 328.71
  L 409.96 329.53
  A 0.66 0.66 0.0 0 0 409.60 330.39
  Q 411.65 335.34 415.68 338.73
  A 3.04 3.04 0.0 0 1 416.70 340.42
  L 419.87 354.82
  A 1.61 1.41 -55.3 0 1 419.91 355.17
  Q 419.90 363.08 419.17 370.49
  C 417.20 390.32 407.96 408.78 394.76 423.77
  Q 389.10 430.19 382.46 436.61
  A 0.71 0.70 -34.7 0 0 382.31 437.41
  C 387.53 448.39 383.27 456.32 373.80 462.59
  A 1.35 1.34 40.4 0 1 372.50 462.69
  L 371.69 462.32
  A 0.57 0.33 -14.9 0 0 371.58 462.29
  L 158.66 460.85
  A 1.62 1.44 53.1 0 1 158.07 460.73
  C 149.79 457.35 148.59 448.34 152.38 441.06
  A 1.01 0.99 -59.5 0 0 152.06 439.78
  Q 137.51 429.81 127.75 416.29
  C 111.26 393.47 109.50 368.27 125.68 344.90
  A 0.23 0.23 0.0 0 0 125.43 344.54
  Q 117.69 346.70 111.15 350.53
  A 0.48 0.48 0.0 0 1 110.44 350.02
  Q 112.33 340.58 119.13 335.17
  A 0.48 0.48 0.0 0 0 118.87 334.31
  L 103.85 333.14
  A 0.21 0.21 0.0 0 1 103.67 332.86
  Q 105.68 327.25 109.88 321.28
  A 0.44 0.43 17.4 0 0 109.52 320.60
  Q 104.58 320.60 103.26 319.60
  A 1.34 1.34 0.0 0 0 101.68 319.57
  Q 97.13 322.76 89.98 322.23
  A 1.92 1.72 2.9 0 1 88.19 320.46
  Q 88.20 319.51 89.25 318.48
  Q 93.55 314.25 96.86 310.32
  A 0.18 0.18 0.0 0 0 96.66 310.04
  Q 82.71 314.57 69.53 308.24
  A 0.36 0.36 0.0 0 1 69.47 307.63
  Q 71.29 306.23 72.26 304.41
  A 0.50 0.50 0.0 0 0 71.91 303.68
  Q 63.42 302.20 55.64 297.83
  C 27.45 281.97 11.79 250.31 6.85 219.45
  C 2.65 193.27 4.68 166.22 10.38 140.28
  A 1.32 1.31 33.6 0 0 10.17 139.25
  Q 7.94 136.07 7.79 130.50
  Q 7.52 120.69 8.60 114.48
  A 0.59 0.59 0.0 0 1 9.39 114.03
  L 10.94 114.61
  A 0.30 0.30 0.0 0 0 11.35 114.34
  Q 11.56 107.30 13.81 101.02
  Q 14.34 99.53 18.92 86.16
  A 0.25 0.25 0.0 0 1 19.36 86.09
  Q 24.54 93.03 32.81 100.48
  A 0.39 0.39 0.0 0 0 33.46 100.17
  L 32.93 90.95
  A 0.19 0.19 0.0 0 1 33.25 90.80
  C 44.81 101.14 49.48 110.29 47.79 126.00
  A 0.39 0.39 0.0 0 0 48.37 126.38
  L 53.49 123.42
  A 0.07 0.07 0.0 0 1 53.60 123.49
  L 53.47 144.00
  A 1.03 1.02 -67.6 0 0 53.78 144.76
  Q 63.66 154.60 72.33 165.15
  Q 74.91 168.29 77.31 172.19
  Q 78.06 173.41 79.29 173.58
  A 0.55 0.54 -1.5 0 0 79.90 172.94
  C 78.44 164.87 77.03 159.74 77.02 152.61
  Q 77.01 140.69 78.21 123.36
  Q 79.08 110.70 81.97 98.72
  Q 85.97 82.13 88.70 74.66
  Q 94.39 59.09 101.47 45.99
  Q 104.06 41.18 108.01 38.73
  A 2.09 2.08 -61.7 0 1 109.03 38.42
  C 110.53 38.37 112.00 39.13 112.34 40.82
  C 113.31 45.70 112.68 50.50 112.13 55.63
  Q 111.75 59.17 112.08 64.88
  Q 113.04 81.63 113.63 90.65
  C 113.88 94.50 114.44 98.81 115.22 102.45
  Q 117.67 113.89 119.83 125.65
  Q 120.13 127.28 121.02 129.32
  A 1.20 1.19 -1.1 0 0 121.70 129.97
  Q 123.62 130.67 125.87 130.33
  Z
  M 401.10 311.54
  Q 400.75 311.32 400.62 311.41
  A 0.19 0.19 0.0 0 0 400.60 311.72
  Q 400.67 311.77 401.02 311.79
  A 0.14 0.14 0.0 0 0 401.10 311.54
  Z"
/>
<path fill="#ffffff" d="
  M 382.92 27.68
  A 0.31 0.31 0.0 0 1 383.42 27.44
  L 383.61 27.59
  A 0.72 0.69 23.0 0 1 383.87 28.19
  Q 383.37 35.56 383.33 36.15
  A 1.48 1.46 -57.0 0 1 380.56 36.76
  Q 379.99 35.66 380.64 34.64
  C 381.44 33.41 381.36 31.45 381.90 30.22
  Q 382.91 27.90 382.92 27.68
  Z"
/>
<path fill="#3e1e21" d="
  M 353.52 221.15
  Q 348.94 219.03 345.87 218.62
  Q 341.43 218.04 334.80 218.83
  Q 334.22 217.91 333.37 217.94
  A 0.89 0.88 19.9 0 0 332.78 218.21
  C 329.81 221.29 331.92 227.23 330.32 231.81
  A 0.24 0.24 0.0 0 1 329.85 231.77
  C 328.58 224.22 325.68 216.15 318.45 212.55
  A 0.52 0.51 -86.9 0 0 317.74 213.19
  C 318.26 214.62 320.09 216.26 319.06 217.94
  Q 311.74 213.33 308.44 211.57
  Q 298.48 206.27 287.02 205.81
  A 1.35 1.35 0.0 0 0 285.64 206.90
  C 284.09 214.74 279.27 220.21 274.21 225.87
  Q 273.16 227.04 272.25 228.57
  Q 271.45 229.93 270.56 231.47
  C 271.41 228.48 273.85 226.49 274.13 223.39
  A 0.63 0.63 0.0 0 0 273.00 222.95
  Q 264.45 234.34 251.90 240.78
  A 0.30 0.30 0.0 0 1 251.53 240.32
  C 254.65 236.64 258.04 232.14 259.00 227.31
  A 9.53 9.49 -24.3 0 1 260.10 224.41
  Q 262.02 221.11 262.42 220.01
  Q 262.54 219.69 262.44 219.38
  A 0.32 0.31 60.8 0 0 261.95 219.24
  Q 258.41 221.99 255.41 225.83
  A 2.55 1.65 -14.4 0 1 255.16 226.10
  L 249.50 231.27
  A 4.51 4.43 9.5 0 1 248.60 231.90
  Q 241.71 235.47 239.80 236.03
  Q 237.63 236.68 228.02 238.80
  Q 221.31 240.29 214.64 239.25
  A 0.30 0.30 0.0 0 1 214.49 238.73
  C 216.53 236.87 220.53 234.74 223.35 231.98
  C 226.83 228.56 232.89 225.47 232.34 218.98
  A 0.90 0.90 0.0 0 0 231.17 218.19
  Q 230.37 218.44 229.44 219.26
  Q 230.86 217.10 231.01 214.84
  A 0.26 0.26 0.0 0 0 230.61 214.60
  C 224.91 218.17 218.77 221.69 212.21 223.22
  Q 213.24 221.84 213.51 220.24
  A 0.47 0.47 0.0 0 0 213.01 219.69
  Q 211.10 219.83 209.41 220.41
  Q 202.69 222.71 189.95 228.20
  Q 187.96 229.05 186.61 229.07
  A 0.25 0.25 0.0 0 1 186.47 228.61
  Q 194.44 223.27 199.71 215.42
  A 0.53 0.53 0.0 0 0 199.01 214.66
  L 187.45 220.98
  Q 177.90 224.27 169.59 228.75
  Q 162.56 232.53 155.44 234.41
  Q 152.99 235.06 151.01 234.57
  A 0.78 0.78 0.0 0 1 150.42 233.90
  Q 150.21 232.01 150.95 230.94
  Q 152.27 229.03 152.31 228.86
  A 0.26 0.26 0.0 0 0 151.95 228.55
  C 147.49 230.60 141.73 233.21 138.55 228.01
  L 139.04 228.24
  A 0.60 0.60 0.0 0 0 139.88 227.57
  L 139.51 225.92
  A 13.16 12.93 -52.6 0 1 139.22 223.59
  Q 139.10 219.53 138.63 218.41
  Q 136.61 213.51 136.61 211.96
  Q 136.61 200.10 137.17 192.28
  A 1.10 1.09 -5.8 0 0 135.78 191.15
  C 133.00 191.91 131.40 194.97 129.38 197.64
  A 0.19 0.18 -21.9 0 1 129.05 197.50
  Q 130.75 186.18 137.99 177.74
  Q 143.69 171.10 143.73 171.05
  A 4.95 4.81 3.4 0 1 145.04 169.92
  C 146.92 168.81 152.92 163.79 151.54 161.00
  A 1.63 1.63 0.0 0 0 150.83 160.29
  C 148.49 159.13 144.34 160.47 142.40 160.67
  A 0.26 0.26 0.0 0 1 142.24 160.19
  C 150.18 155.36 159.13 146.59 160.11 136.76
  A 0.51 0.51 0.0 0 0 159.13 136.53
  Q 157.65 140.33 154.51 142.37
  A 0.81 0.80 62.9 0 1 153.32 141.98
  Q 150.80 135.37 144.40 132.18
  A 1.63 1.61 -1.7 0 1 143.69 131.52
  Q 143.22 130.69 143.69 129.65
  A 0.56 0.55 -72.1 0 0 143.30 128.88
  Q 134.88 127.13 125.87 130.33
  C 127.16 128.19 128.89 126.36 129.85 124.44
  Q 131.75 120.60 132.00 116.35
  Q 132.83 117.21 133.59 117.36
  Q 134.35 117.50 135.13 116.52
  C 137.67 113.33 139.15 109.87 141.77 106.90
  Q 145.32 102.88 151.40 94.27
  A 1.08 1.08 0.0 0 0 150.59 92.57
  Q 146.32 92.31 141.42 93.78
  A 0.37 0.36 -74.5 0 1 141.07 93.16
  L 148.61 86.28
  A 2.46 2.44 9.8 0 1 149.14 85.91
  Q 155.42 82.70 161.94 78.55
  C 164.94 76.64 167.80 75.88 170.47 74.99
  A 2.81 2.81 0.0 0 0 172.36 71.94
  C 171.90 68.54 168.26 63.70 166.20 61.11
  A 0.25 0.24 -1.2 0 1 166.54 60.76
  C 169.76 63.09 173.20 63.78 176.60 65.22
  Q 183.94 68.32 193.89 67.15
  Q 199.30 66.51 201.30 65.10
  Q 209.83 59.08 216.40 52.40
  A 0.57 0.57 0.0 0 1 217.38 52.85
  Q 216.85 59.08 218.25 65.24
  C 218.67 67.11 220.47 67.43 222.06 66.37
  Q 223.92 65.13 225.81 63.47
  A 0.47 0.47 0.0 0 1 226.56 63.97
  L 224.31 70.61
  A 0.48 0.48 0.0 0 0 225.01 71.17
  Q 225.14 71.09 226.00 70.25
  Q 233.18 63.15 239.89 54.42
  A 0.80 0.79 49.9 0 1 241.22 54.54
  C 243.24 58.43 243.88 62.49 245.01 67.60
  A 0.84 0.84 0.0 0 0 246.39 68.05
  L 249.25 65.55
  A 3.57 3.39 7.8 0 1 249.79 65.16
  Q 254.40 62.50 259.61 58.42
  C 267.56 52.20 273.48 49.01 283.62 42.31
  A 0.39 0.39 0.0 0 1 284.22 42.65
  Q 283.93 50.56 284.04 56.42
  Q 284.10 59.71 283.12 61.83
  A 0.30 0.30 0.0 0 0 283.41 62.26
  C 286.19 62.14 286.52 60.98 288.47 59.69
  Q 301.03 51.34 311.21 39.70
  Q 317.90 32.07 320.12 29.60
  A 0.51 0.51 0.0 0 1 320.99 30.09
  Q 319.52 35.21 318.32 39.64
  Q 316.97 44.65 316.03 47.01
  C 314.34 51.30 314.19 55.17 311.92 59.22
  Q 310.78 61.26 310.10 64.05
  A 0.57 0.57 0.0 0 0 310.84 64.72
  C 313.66 63.73 315.45 62.18 318.91 59.67
  Q 320.39 58.59 323.83 57.15
  Q 331.52 53.92 337.05 50.93
  A 18.51 18.22 22.4 0 1 340.74 49.43
  Q 347.04 47.65 347.89 47.32
  Q 351.41 45.94 355.11 45.50
  C 360.14 44.91 367.04 41.59 373.76 43.66
  Q 378.75 45.20 381.92 46.34
  A 10.27 10.22 -39.4 0 0 386.99 46.82
  Q 391.34 46.14 395.71 46.57
  A 1.50 1.43 40.1 0 0 396.22 46.54
  L 400.25 45.66
  A 0.43 0.43 0.0 0 1 400.60 46.43
  Q 388.75 55.01 379.20 64.67
  C 376.83 67.06 374.84 68.10 373.99 71.73
  A 2.58 2.58 0.0 0 0 375.05 74.46
  C 376.31 75.32 378.45 75.93 380.33 75.88
  Q 383.87 75.79 393.83 76.42
  A 0.28 0.28 0.0 0 1 394.01 76.89
  L 387.88 83.02
  A 2.12 2.09 -78.2 0 1 387.19 83.48
  L 381.28 85.90
  A 4.93 4.88 28.6 0 1 380.31 86.18
  Q 372.94 87.43 365.60 90.70
  A 0.64 0.64 0.0 0 0 365.82 91.92
  Q 366.94 91.99 367.97 91.70
  Q 374.88 89.76 381.44 89.17
  Q 382.86 89.05 387.09 87.71
  A 1.87 1.50 -51.3 0 1 387.49 87.62
  L 411.46 84.47
  A 1.62 1.61 -20.6 0 1 413.03 85.18
  C 413.59 86.01 413.70 87.87 414.75 88.99
  Q 415.68 89.98 421.52 96.71
  Q 422.22 97.51 425.69 103.07
  C 430.34 110.52 435.86 113.27 443.49 116.83
  A 4.14 4.04 60.4 0 0 444.70 117.18
  L 462.34 119.50
  A 0.18 0.18 0.0 0 1 462.42 119.82
  Q 457.26 123.57 453.61 128.11
  A 6.22 6.21 -82.1 0 1 451.19 129.94
  L 443.66 133.15
  A 1.61 1.19 -53.7 0 1 443.34 133.25
  L 431.25 135.64
  A 0.99 0.98 -81.7 0 0 430.56 136.16
  C 429.34 138.53 431.96 140.44 433.67 141.69
  A 5.39 5.27 0.9 0 1 434.87 142.90
  Q 440.33 150.47 442.22 153.70
  C 444.16 157.01 446.72 159.54 448.09 163.22
  A 0.90 0.89 -31.0 0 1 447.84 164.21
  L 442.04 169.29
  A 1.39 1.29 15.5 0 1 441.48 169.58
  L 430.13 172.48
  A 4.84 4.10 -49.7 0 1 429.35 172.61
  C 424.55 173.01 420.86 173.10 417.02 174.63
  A 0.83 0.83 0.0 0 0 417.04 176.18
  L 418.93 176.90
  A 0.59 0.59 0.0 0 1 419.31 177.56
  Q 418.73 180.53 419.89 182.65
  Q 423.66 189.54 425.50 192.42
  A 7.20 7.09 2.1 0 0 427.27 194.30
  L 433.56 198.95
  A 0.37 0.37 0.0 0 1 433.43 199.61
  C 425.65 201.64 415.56 199.07 408.80 196.11
  A 5.90 5.51 -13.3 0 1 407.56 195.40
  C 403.25 192.21 401.19 190.42 398.64 186.32
  C 396.57 182.98 393.44 181.41 389.71 180.36
  A 0.31 0.31 0.0 0 0 389.41 180.89
  C 390.57 182.00 391.30 183.09 391.58 184.57
  Q 392.88 191.52 394.28 196.00
  A 9.65 9.51 37.0 0 1 394.71 198.90
  Q 394.67 204.67 394.12 210.46
  C 393.51 216.80 390.67 226.55 384.71 229.73
  A 0.44 0.43 -17.2 0 1 384.07 229.40
  Q 383.52 224.39 381.69 220.06
  Q 380.43 217.07 377.55 216.44
  A 0.53 0.52 -1.9 0 1 377.17 216.09
  L 374.95 209.07
  A 1.14 1.14 0.0 0 0 372.95 208.74
  Q 371.87 210.22 371.61 211.63
  C 370.90 215.43 370.61 222.53 368.41 227.54
  A 0.18 0.18 0.0 0 1 368.07 227.43
  Q 368.99 222.87 366.26 218.41
  A 0.61 0.61 0.0 0 0 365.19 218.46
  C 363.60 221.78 363.37 226.57 363.22 230.61
  A 0.28 0.28 0.0 0 1 362.70 230.75
  C 361.13 228.22 359.22 224.03 356.88 222.31
  Q 355.15 221.05 353.52 221.15
  Z"
/>
<path fill="#ffffff" d="
  M 99.36 101.58
  Q 98.91 107.67 99.41 113.85
  Q 100.08 122.08 100.16 125.17
  Q 100.28 130.18 102.23 138.75
  C 102.85 141.50 104.33 147.09 103.15 149.39
  A 0.77 0.77 0.0 0 1 102.14 149.74
  Q 98.18 147.90 96.93 143.56
  C 95.19 137.45 93.77 131.65 93.43 125.00
  Q 93.03 116.95 92.70 108.91
  A 5.61 5.28 49.6 0 1 92.75 107.92
  L 93.49 102.86
  C 93.77 97.73 95.51 91.52 96.14 88.08
  Q 97.67 79.73 99.51 71.36
  Q 100.02 69.01 101.41 65.44
  A 0.29 0.28 57.9 0 1 101.96 65.57
  Q 101.79 68.41 100.60 77.33
  C 99.97 82.13 100.17 85.71 100.13 90.36
  A 9.79 9.47 -40.2 0 1 99.96 92.05
  Q 99.12 96.64 99.36 101.58
  Z"
/>
<path fill="#3e1e21" d="
  M 38.01 135.11
  L 25.54 124.98
  A 0.81 0.80 -54.9 0 0 24.34 125.19
  Q 22.29 128.65 18.73 128.55
  A 0.97 0.95 -72.1 0 0 17.89 128.99
  L 16.20 131.59
  A 1.30 0.76 -30.5 0 0 16.10 131.77
  L 11.83 141.51
  L 14.47 133.59
  A 0.20 0.19 -10.7 0 0 14.16 133.38
  Q 13.06 134.24 12.16 135.60
  A 0.83 0.83 0.0 0 1 10.63 135.14
  L 10.73 119.20
  A 0.50 0.50 0.0 0 1 11.58 118.85
  L 13.96 121.24
  A 0.86 0.86 0.0 0 0 15.42 120.56
  C 14.73 112.84 15.10 106.72 17.35 99.51
  Q 19.20 93.62 19.84 91.62
  A 0.39 0.39 0.0 0 1 20.52 91.51
  Q 25.94 98.83 33.94 103.63
  A 0.82 0.82 0.0 0 0 35.18 103.03
  L 35.94 97.27
  A 0.52 0.52 0.0 0 1 36.85 96.99
  C 41.38 102.24 44.50 106.38 45.30 113.23
  Q 46.13 120.23 45.82 126.01
  C 45.76 127.15 46.01 128.63 46.32 129.51
  A 1.26 1.26 0.0 0 0 48.35 130.09
  L 50.87 127.90
  A 0.62 0.62 0.0 0 1 51.89 128.40
  Q 51.53 134.65 52.68 140.86
  A 0.69 0.69 0.0 0 1 51.53 141.50
  Q 45.68 136.23 38.01 135.11
  Z"
/>
<path fill="#e2d8cc" d="
  M 109.43 102.22
  Q 109.68 102.79 109.77 105.01
  Q 110.03 111.27 113.03 119.94
  L 115.59 131.87
  A 0.11 0.09 52.1 0 0 115.78 131.91
  Q 115.79 131.87 115.80 131.78
  A 0.04 0.02 -66.1 0 1 115.85 131.74
  Q 116.40 132.80 116.59 133.67
  A 0.97 0.96 63.7 0 1 116.28 134.60
  L 111.72 138.59
  A 2.01 0.86 -23.2 0 0 111.51 138.81
  Q 107.55 143.46 106.26 150.86
  A 0.48 0.48 0.0 0 0 107.13 151.20
  Q 109.13 148.16 112.07 147.07
  A 1.36 1.32 -76.2 0 0 112.58 146.75
  L 121.46 137.87
  A 3.12 3.11 -72.1 0 1 123.19 136.98
  Q 128.07 136.16 133.99 134.59
  Q 135.49 134.19 137.49 134.49
  A 2.60 2.57 -24.4 0 1 138.49 134.86
  L 144.19 138.37
  A 3.48 3.47 0.8 0 1 145.38 139.59
  L 149.30 146.38
  A 1.37 1.36 53.0 0 1 149.07 148.05
  Q 143.86 153.08 135.99 158.00
  A 6.57 6.21 -67.5 0 1 134.45 158.69
  C 133.10 159.09 131.21 159.43 129.59 160.94
  Q 127.98 162.44 126.83 162.96
  A 0.60 0.60 0.0 0 0 126.83 164.05
  L 128.86 164.96
  A 1.28 1.20 -28.4 0 0 129.24 165.06
  Q 137.08 165.74 143.22 164.86
  A 0.31 0.31 0.0 0 1 143.53 165.32
  Q 143.40 165.53 138.56 169.83
  C 132.77 174.99 128.41 181.36 125.83 188.59
  Q 124.67 191.83 123.22 197.50
  C 122.26 201.26 121.90 204.75 125.12 207.21
  A 1.31 1.31 0.0 0 0 126.97 206.95
  L 129.88 203.01
  A 0.24 0.24 0.0 0 1 130.31 203.18
  C 129.73 208.32 128.41 213.31 130.22 216.63
  Q 131.57 219.11 131.80 220.06
  A 0.20 0.20 0.0 0 1 131.51 220.29
  L 122.66 215.58
  A 2.23 1.80 -6.0 0 1 122.26 215.32
  C 119.34 212.95 115.97 211.33 112.55 208.81
  Q 102.48 201.35 93.68 191.30
  A 1.10 1.09 28.3 0 1 93.41 190.42
  Q 93.96 186.28 93.34 185.22
  Q 93.16 184.91 89.95 179.37
  Q 85.99 172.55 84.97 164.78
  C 84.91 162.61 85.03 160.60 84.68 158.42
  Q 83.93 153.87 83.91 149.25
  Q 83.87 140.52 83.52 131.79
  C 83.03 126.41 83.40 119.79 84.32 115.08
  Q 85.58 108.55 90.11 103.07
  Q 91.10 101.87 93.49 102.86
  L 92.75 107.92
  A 5.61 5.28 49.6 0 0 92.70 108.91
  Q 93.03 116.95 93.43 125.00
  C 93.77 131.65 95.19 137.45 96.93 143.56
  Q 98.18 147.90 102.14 149.74
  A 0.77 0.77 0.0 0 0 103.15 149.39
  C 104.33 147.09 102.85 141.50 102.23 138.75
  Q 100.28 130.18 100.16 125.17
  Q 100.08 122.08 99.41 113.85
  Q 98.91 107.67 99.36 101.58
  Q 101.96 99.24 104.98 99.66
  A 1.54 1.52 -18.9 0 1 105.81 100.06
  Q 107.43 101.53 109.43 102.22
  Z"
/>
<path fill="#df9a9d" d="
  M 113.03 119.94
  Q 110.03 111.27 109.77 105.01
  Q 109.68 102.79 109.43 102.22
  Q 110.07 101.63 110.25 103.01
  Q 111.25 110.70 113.03 119.94
  Z"
/>
<path fill="#744c28" d="
  M 38.01 135.11
  L 41.35 137.44
  A 5.70 5.52 86.9 0 1 42.44 138.45
  Q 44.36 140.77 48.93 144.63
  Q 50.29 145.77 59.98 156.09
  Q 63.50 159.84 65.14 162.82
  Q 66.34 165.01 68.39 167.43
  Q 69.53 168.77 71.66 172.06
  C 73.56 174.98 76.81 180.71 79.62 184.54
  Q 91.84 201.21 107.21 213.32
  Q 109.99 215.51 114.64 218.17
  C 118.58 220.42 121.94 223.17 126.74 224.06
  A 4.84 4.70 45.8 0 0 128.18 224.10
  L 133.49 223.40
  A 1.63 1.61 54.6 0 1 134.46 223.57
  Q 137.30 225.07 138.55 228.01
  C 141.73 233.21 147.49 230.60 151.95 228.55
  A 0.26 0.26 0.0 0 1 152.31 228.86
  Q 152.27 229.03 150.95 230.94
  Q 150.21 232.01 150.42 233.90
  A 0.78 0.78 0.0 0 0 151.01 234.57
  Q 152.99 235.06 155.44 234.41
  Q 162.56 232.53 169.59 228.75
  Q 177.90 224.27 187.45 220.98
  Q 182.72 225.22 178.45 228.70
  C 176.22 230.51 174.32 232.69 176.91 235.00
  A 2.01 2.01 0.0 0 0 177.88 235.47
  Q 183.98 236.56 188.70 234.83
  Q 195.03 232.52 203.89 228.35
  C 206.93 226.92 209.43 225.03 212.21 223.22
  C 218.77 221.69 224.91 218.17 230.61 214.60
  A 0.26 0.26 0.0 0 1 231.01 214.84
  Q 230.86 217.10 229.44 219.26
  C 225.92 222.52 221.91 225.57 218.87 228.96
  Q 214.70 233.63 208.23 238.44
  A 2.20 2.08 20.1 0 1 207.30 238.84
  L 202.14 239.68
  A 0.53 0.53 0.0 0 0 201.87 240.60
  Q 205.05 243.46 208.22 244.30
  Q 218.99 247.15 230.23 244.67
  Q 231.48 244.39 237.74 242.79
  C 243.55 241.30 248.28 238.01 252.32 234.20
  A 0.18 0.18 0.0 0 1 252.56 234.20
  L 252.57 234.21
  A 0.11 0.09 -53.6 0 1 252.58 234.33
  L 247.66 241.33
  A 1.45 1.43 -87.5 0 1 247.21 241.75
  L 242.49 244.59
  A 0.78 0.77 48.0 0 0 242.43 245.88
  C 246.16 248.69 251.39 247.66 254.99 245.76
  Q 265.07 240.42 270.56 231.47
  Q 271.45 229.93 272.25 228.57
  Q 273.16 227.04 274.21 225.87
  C 279.27 220.21 284.09 214.74 285.64 206.90
  A 1.35 1.35 0.0 0 1 287.02 205.81
  Q 298.48 206.27 308.44 211.57
  Q 311.74 213.33 319.06 217.94
  Q 323.26 221.59 324.38 227.34
  Q 325.59 233.58 325.13 240.65
  A 1.53 1.53 0.0 0 0 327.65 241.92
  Q 333.25 237.23 335.98 230.91
  C 337.78 226.75 337.01 222.66 334.80 218.83
  Q 341.43 218.04 345.87 218.62
  Q 348.94 219.03 353.52 221.15
  Q 357.06 227.90 359.67 235.50
  Q 360.38 237.56 361.41 238.08
  C 365.13 239.97 366.09 235.48 367.42 233.37
  A 5.73 5.53 87.4 0 1 368.55 232.09
  Q 374.95 226.80 376.13 218.01
  A 0.45 0.45 0.0 0 1 376.97 217.84
  C 379.66 222.33 379.87 227.54 380.24 232.64
  C 380.65 238.12 387.19 233.43 388.60 232.88
  A 5.25 5.12 12.1 0 0 390.30 231.81
  Q 395.48 226.99 398.24 219.11
  A 0.53 0.52 -47.8 0 1 399.21 219.06
  C 401.81 224.62 404.14 227.90 405.85 232.75
  Q 406.51 234.64 408.42 237.81
  A 8.23 7.78 -71.7 0 1 409.07 239.20
  C 410.18 242.33 411.69 245.10 412.85 248.62
  Q 414.40 253.37 417.74 260.80
  Q 418.78 263.10 419.44 266.64
  A 1.52 1.51 -39.5 0 1 419.36 267.44
  L 416.45 275.18
  A 0.86 0.85 9.3 0 1 415.68 275.73
  L 410.39 275.92
  A 0.56 0.26 19.9 0 0 410.28 275.93
  Q 406.97 276.69 405.43 276.72
  Q 394.51 276.97 359.26 277.34
  C 349.55 277.44 339.18 276.78 328.70 276.94
  C 324.40 277.00 319.60 276.42 315.94 276.02
  A 3.43 3.38 65.8 0 1 314.32 275.39
  C 311.52 273.34 310.19 269.57 308.50 268.02
  Q 306.24 265.94 305.79 267.41
  A 1.98 1.94 -48.1 0 0 305.85 268.74
  L 310.62 280.41
  A 4.65 4.59 -76.9 0 0 311.37 281.63
  C 313.29 283.86 316.62 283.80 317.44 286.94
  Q 318.44 290.73 320.80 293.00
  A 8.69 8.45 5.5 0 1 321.97 294.38
  Q 328.29 303.81 331.64 307.04
  C 338.99 314.13 349.27 316.05 359.51 318.00
  Q 362.93 318.65 365.68 317.91
  Q 368.20 317.24 370.41 317.11
  Q 376.84 316.76 383.25 315.65
  L 388.98 314.98
  A 1.24 1.22 -39.8 0 1 389.47 315.02
  L 394.93 316.54
  A 0.90 0.90 0.0 0 1 395.60 317.41
  Q 395.63 321.03 397.20 324.82
  Q 397.48 325.49 400.13 327.49
  Q 400.47 327.74 400.89 327.79
  Q 401.28 327.83 401.55 328.01
  A 0.89 0.88 28.7 0 1 401.87 329.08
  C 400.87 331.53 403.21 333.35 403.71 335.72
  Q 404.63 340.05 407.81 345.19
  A 3.06 2.72 8.0 0 0 408.32 345.79
  Q 410.71 347.89 411.96 351.37
  C 412.82 353.76 411.62 356.66 412.74 359.35
  A 1.20 1.18 49.8 0 1 412.66 360.42
  C 412.09 361.39 411.09 361.70 411.41 363.07
  Q 411.87 365.08 412.86 367.51
  A 0.80 0.79 -22.6 0 1 412.43 368.54
  C 409.70 369.67 410.64 373.37 411.09 375.47
  A 3.49 3.46 -40.9 0 1 410.94 377.45
  Q 410.06 379.72 410.54 382.46
  A 1.59 1.58 -30.1 0 1 410.19 383.76
  C 407.65 386.78 408.26 389.09 408.68 393.03
  A 0.89 0.89 0.0 0 1 407.82 394.02
  Q 406.02 394.07 405.46 395.14
  A 1.10 1.07 62.6 0 0 405.33 395.57
  L 405.02 400.53
  Q 402.88 402.89 402.41 406.11
  A 0.64 0.63 1.7 0 1 401.83 406.65
  Q 398.16 406.90 397.92 411.43
  Q 397.83 413.22 396.48 415.08
  Q 391.53 421.92 390.11 423.77
  Q 389.04 425.17 384.81 428.59
  Q 380.10 432.41 377.21 437.22
  Q 375.21 431.78 371.79 427.19
  Q 376.49 423.23 380.72 417.95
  C 385.10 412.48 385.61 405.86 387.03 399.14
  A 0.34 0.33 -58.3 0 0 386.97 398.87
  Q 386.68 398.45 386.14 398.70
  Q 391.67 386.66 390.64 372.76
  Q 390.07 364.95 389.63 362.62
  Q 388.94 358.97 386.92 355.58
  C 382.18 347.61 377.46 341.23 367.49 341.01
  Q 358.91 340.82 351.04 344.60
  L 345.39 346.33
  Q 333.47 350.80 321.02 353.48
  Q 313.46 355.11 307.38 354.88
  Q 298.03 354.53 288.48 353.05
  Q 283.51 352.29 276.83 350.14
  C 267.93 347.29 264.69 346.72 257.51 343.98
  C 248.94 340.71 237.39 341.87 229.04 343.82
  Q 225.67 344.61 222.87 346.33
  Q 211.22 353.51 205.56 364.98
  C 202.73 370.71 200.70 376.24 201.24 382.56
  A 1.48 1.48 0.0 0 0 204.10 382.96
  L 204.50 381.88
  A 0.25 0.25 0.0 0 1 204.98 381.99
  L 204.66 385.46
  Q 203.88 384.52 202.67 384.38
  A 0.75 0.75 0.0 0 0 201.88 384.85
  L 200.29 389.09
  A 0.60 0.60 0.0 0 1 199.47 389.42
  Q 193.00 386.38 186.87 385.18
  Q 182.87 384.39 176.49 384.83
  A 3.46 3.28 30.6 0 0 175.53 385.05
  L 167.56 388.16
  A 0.54 0.54 0.0 0 0 167.62 389.18
  L 167.97 389.27
  Q 160.62 392.02 157.00 398.64
  C 154.80 402.66 153.25 407.46 153.69 412.00
  Q 154.58 421.25 154.69 426.28
  Q 154.72 427.23 154.03 427.44
  Q 153.28 427.66 153.19 427.78
  Q 152.91 428.15 152.65 428.57
  A 0.63 0.63 0.0 0 1 151.48 428.32
  Q 151.06 424.54 150.47 421.94
  A 1.70 1.38 79.0 0 0 148.86 420.59
  Q 147.73 420.74 147.29 424.01
  A 0.37 0.37 0.0 0 1 146.73 424.28
  Q 146.18 423.96 146.18 422.88
  Q 146.18 421.30 145.62 417.40
  C 145.38 415.74 144.14 414.22 142.38 415.30
  C 141.60 415.78 141.70 416.12 141.31 416.51
  A 0.34 0.34 0.0 0 1 140.74 416.30
  C 140.56 414.08 140.65 411.74 139.67 410.22
  Q 139.04 409.26 138.17 409.80
  Q 137.61 410.14 137.17 411.51
  A 0.51 0.50 14.9 0 1 136.59 411.84
  Q 135.92 411.69 135.88 411.08
  C 135.74 408.97 136.60 404.64 134.66 401.80
  A 1.81 1.79 30.9 0 1 134.35 400.59
  Q 134.65 397.69 133.46 395.67
  A 0.93 0.91 -20.1 0 0 132.51 395.24
  Q 130.66 395.59 130.38 398.78
  A 0.18 0.18 0.0 0 1 130.05 398.85
  Q 129.89 398.56 130.07 397.75
  C 130.76 394.50 132.45 388.96 131.56 385.85
  A 0.93 0.89 50.8 0 0 129.87 385.65
  Q 129.72 385.96 129.48 386.10
  A 0.41 0.40 83.9 0 1 128.90 385.63
  C 129.32 384.19 130.28 381.24 128.45 380.38
  A 1.26 1.07 -67.5 0 1 127.96 378.86
  Q 129.11 375.89 131.80 370.26
  A 1.04 1.04 0.0 0 0 130.64 368.79
  L 130.31 368.86
  A 0.38 0.38 0.0 0 1 129.90 368.30
  L 133.50 362.05
  A 2.84 2.83 60.5 0 0 133.88 360.67
  L 133.89 358.38
  A 1.48 1.40 -28.0 0 1 134.18 357.52
  Q 135.90 355.19 136.70 353.71
  Q 137.85 351.57 136.39 350.84
  A 1.13 1.04 -49.8 0 1 136.32 349.02
  Q 138.80 347.03 137.85 345.02
  A 0.92 0.91 -35.5 0 1 138.03 343.98
  L 140.58 341.42
  A 2.35 2.35 0.0 0 0 140.58 338.10
  L 139.56 337.08
  A 0.84 0.83 58.8 0 1 139.90 335.69
  Q 143.53 334.58 148.10 332.82
  Q 152.06 331.29 153.11 326.40
  C 153.42 324.97 151.88 324.01 151.62 322.57
  Q 152.41 320.81 150.67 319.56
  Q 140.91 312.59 128.50 312.33
  C 126.76 312.30 125.28 313.19 124.49 314.62
  A 1.05 1.03 -61.7 0 0 124.91 316.05
  L 128.29 317.83
  A 1.05 1.03 84.0 0 1 128.57 318.06
  L 136.69 327.33
  A 0.58 0.58 0.0 0 1 136.38 328.28
  L 125.22 330.74
  A 0.86 0.80 47.0 0 1 124.80 330.71
  Q 117.36 328.22 109.84 329.36
  A 0.59 0.59 0.0 0 1 109.27 328.43
  L 114.96 320.74
  A 0.57 0.53 65.8 0 0 115.05 320.47
  L 115.08 315.46
  A 1.13 1.13 0.0 0 0 113.43 314.45
  Q 112.22 315.07 111.40 315.14
  A 0.22 0.22 0.0 0 1 111.22 314.76
  Q 115.17 310.97 112.82 309.47
  Q 119.35 306.20 124.20 301.23
  A 8.45 8.44 -11.5 0 0 125.94 298.60
  Q 127.11 295.77 128.15 293.69
  C 129.19 291.62 132.61 289.94 133.79 287.89
  Q 135.52 284.88 134.34 279.83
  A 1.32 1.31 -4.2 0 0 133.17 278.83
  Q 127.87 278.40 124.80 280.87
  A 0.24 0.24 0.0 0 1 124.44 280.58
  Q 125.46 278.59 125.63 275.63
  A 2.09 2.07 70.0 0 1 126.26 274.26
  C 128.34 272.24 130.78 269.19 128.07 266.70
  A 1.43 1.40 68.1 0 0 127.23 266.33
  Q 125.24 266.17 123.65 267.28
  A 0.28 0.27 -13.5 0 1 123.22 267.02
  Q 123.68 263.66 125.83 261.59
  C 127.61 259.89 129.73 253.67 125.37 253.71
  Q 128.20 250.41 130.39 247.39
  A 0.52 0.52 0.0 0 0 130.18 246.61
  Q 129.72 246.41 129.26 246.75
  Q 123.94 250.80 120.52 252.33
  A 0.43 0.42 -88.1 0 1 119.97 251.74
  Q 120.73 250.32 121.04 248.50
  A 1.70 1.50 -79.1 0 0 119.92 246.60
  C 119.25 246.46 117.85 247.57 116.33 248.60
  A 2.78 2.77 26.2 0 1 114.89 249.09
  L 106.36 249.50
  Q 106.28 248.42 105.74 248.24
  L 110.55 245.05
  A 0.46 0.46 0.0 0 0 110.18 244.22
  L 106.25 245.22
  A 3.33 3.31 -41.0 0 1 104.18 245.08
  Q 103.68 244.82 98.32 244.42
  Q 96.28 244.27 90.89 242.46
  Q 88.44 241.63 84.27 238.82
  C 77.56 234.31 72.51 230.68 67.46 225.26
  A 8.51 8.44 -73.7 0 1 65.44 221.53
  Q 63.64 214.25 59.34 207.01
  A 6.73 6.49 23.1 0 1 58.67 205.43
  Q 57.27 200.38 56.23 195.26
  Q 53.38 181.27 48.65 167.31
  Q 46.28 160.30 43.09 155.15
  Q 38.42 147.62 35.19 144.30
  Q 32.29 141.32 27.36 142.27
  Q 24.12 141.99 23.10 142.58
  C 16.03 146.72 14.63 153.96 13.53 161.39
  Q 11.63 174.21 12.00 186.75
  Q 12.36 198.72 13.40 212.25
  Q 13.91 218.93 17.50 239.00
  L 18.66 245.71
  A 0.18 0.17 75.2 0 1 18.56 245.90
  L 18.55 245.90
  A 0.23 0.22 69.4 0 1 18.27 245.77
  L 16.17 240.64
  A 1.69 1.08 -78.5 0 1 16.10 240.45
  L 12.54 229.20
  A 0.86 0.67 38.0 0 1 12.51 229.08
  Q 10.11 214.59 9.92 209.93
  Q 9.03 188.32 9.35 166.25
  Q 9.44 160.16 10.14 154.27
  Q 10.90 147.78 11.83 141.51
  L 16.10 131.77
  A 1.30 0.76 -30.5 0 1 16.20 131.59
  L 17.89 128.99
  A 0.97 0.95 -72.1 0 1 18.73 128.55
  Q 22.29 128.65 24.34 125.19
  A 0.81 0.80 -54.9 0 1 25.54 124.98
  L 38.01 135.11
  Z"
/>
<path fill="#df9a9d" d="
  M 84.97 164.78
  Q 83.71 158.67 83.62 157.00
  Q 83.22 149.36 83.52 131.79
  Q 83.87 140.52 83.91 149.25
  Q 83.93 153.87 84.68 158.42
  C 85.03 160.60 84.91 162.61 84.97 164.78
  Z"
/>
<path fill="#301d00" d="
  M 105.74 248.24
  C 101.94 249.00 98.16 249.99 94.39 249.68
  Q 89.39 249.26 85.66 247.29
  Q 71.87 240.01 61.70 228.21
  Q 58.82 224.87 58.16 217.80
  A 7.72 7.50 32.2 0 0 57.63 215.61
  C 56.21 212.09 54.19 208.50 53.16 204.18
  Q 52.07 199.57 50.20 190.07
  C 49.45 186.26 49.50 182.74 48.48 178.77
  Q 44.55 163.47 38.94 151.84
  Q 38.26 150.41 36.30 148.79
  Q 35.52 148.14 33.51 145.90
  Q 31.21 143.35 27.36 142.27
  Q 32.29 141.32 35.19 144.30
  Q 38.42 147.62 43.09 155.15
  Q 46.28 160.30 48.65 167.31
  Q 53.38 181.27 56.23 195.26
  Q 57.27 200.38 58.67 205.43
  A 6.73 6.49 23.1 0 0 59.34 207.01
  Q 63.64 214.25 65.44 221.53
  A 8.51 8.44 -73.7 0 0 67.46 225.26
  C 72.51 230.68 77.56 234.31 84.27 238.82
  Q 88.44 241.63 90.89 242.46
  Q 96.28 244.27 98.32 244.42
  Q 103.68 244.82 104.18 245.08
  A 3.33 3.31 -41.0 0 0 106.25 245.22
  L 110.18 244.22
  A 0.46 0.46 0.0 0 1 110.55 245.05
  L 105.74 248.24
  Z"
/>
<path fill="#e2d8cc" d="
  M 27.36 142.27
  Q 31.21 143.35 33.51 145.90
  Q 35.52 148.14 36.30 148.79
  Q 38.26 150.41 38.94 151.84
  Q 44.55 163.47 48.48 178.77
  C 49.50 182.74 49.45 186.26 50.20 190.07
  Q 52.07 199.57 53.16 204.18
  C 54.19 208.50 56.21 212.09 57.63 215.61
  A 7.72 7.50 32.2 0 1 58.16 217.80
  Q 58.82 224.87 61.70 228.21
  Q 71.87 240.01 85.66 247.29
  Q 89.39 249.26 94.39 249.68
  C 98.16 249.99 101.94 249.00 105.74 248.24
  Q 106.28 248.42 106.36 249.50
  Q 105.06 249.93 104.41 250.51
  A 0.38 0.38 0.0 0 0 104.50 251.14
  Q 109.38 253.46 114.33 252.62
  A 0.31 0.31 0.0 0 1 114.54 253.20
  Q 112.92 254.16 112.21 255.35
  A 1.39 1.36 -66.3 0 0 112.98 257.39
  Q 113.21 257.46 113.72 257.34
  Q 119.96 255.93 125.37 253.71
  C 129.73 253.67 127.61 259.89 125.83 261.59
  Q 123.68 263.66 123.22 267.02
  A 0.28 0.27 -13.5 0 0 123.65 267.28
  Q 125.24 266.17 127.23 266.33
  A 1.43 1.40 68.1 0 1 128.07 266.70
  C 130.78 269.19 128.34 272.24 126.26 274.26
  A 2.09 2.07 70.0 0 0 125.63 275.63
  Q 125.46 278.59 124.44 280.58
  A 0.24 0.24 0.0 0 0 124.80 280.87
  Q 127.87 278.40 133.17 278.83
  A 1.32 1.31 -4.2 0 1 134.34 279.83
  Q 135.52 284.88 133.79 287.89
  C 132.61 289.94 129.19 291.62 128.15 293.69
  Q 127.11 295.77 125.94 298.60
  A 8.45 8.44 -11.5 0 1 124.20 301.23
  Q 119.35 306.20 112.82 309.47
  Q 108.28 311.62 104.64 314.04
  C 102.28 315.61 99.94 315.66 97.64 316.47
  A 0.63 0.63 0.0 0 1 96.96 315.45
  Q 99.92 312.18 102.07 308.86
  Q 102.98 307.45 102.59 306.45
  A 2.33 2.04 -25.5 0 0 99.43 305.56
  C 96.47 307.16 94.35 307.91 91.06 307.88
  Q 87.96 307.84 86.96 308.58
  A 0.79 0.77 28.2 0 1 86.44 308.73
  L 76.00 308.14
  A 0.54 0.54 0.0 0 1 75.60 307.28
  L 77.52 304.69
  A 0.98 0.97 48.0 0 0 77.57 303.63
  Q 76.07 301.14 74.65 300.44
  C 68.56 297.43 60.17 295.22 54.27 291.62
  Q 50.64 289.41 50.05 289.01
  Q 45.02 285.56 39.13 278.74
  Q 37.88 277.30 36.66 275.73
  A 0.26 0.26 0.0 0 1 36.90 275.31
  L 37.15 275.35
  A 0.04 0.04 0.0 0 0 37.18 275.28
  Q 31.81 268.88 30.32 266.41
  Q 28.37 263.16 24.53 256.48
  Q 19.82 248.29 17.50 239.00
  Q 13.91 218.93 13.40 212.25
  Q 12.36 198.72 12.00 186.75
  Q 11.63 174.21 13.53 161.39
  C 14.63 153.96 16.03 146.72 23.10 142.58
  Q 24.12 141.99 27.36 142.27
  Z"
/>
<path fill="#ffffff" d="
  M 96.18 161.89
  Q 96.44 162.05 98.41 165.25
  Q 99.45 166.93 99.94 167.01
  C 102.15 167.38 105.49 162.22 106.20 160.71
  C 108.48 155.83 113.11 148.09 118.36 145.70
  Q 122.24 143.94 127.04 143.49
  A 1.15 1.14 27.1 0 1 127.73 145.62
  L 126.45 146.35
  A 3.24 3.13 -84.1 0 0 125.64 147.03
  Q 120.01 153.66 119.41 154.64
  Q 117.68 157.43 112.85 166.86
  C 110.28 171.89 104.90 175.72 98.81 173.71
  C 92.24 171.53 96.06 166.61 95.65 162.22
  A 0.35 0.35 0.0 0 1 96.18 161.89
  Z"
/>
<path fill="#744c28" d="
  M 439.36 197.70
  Q 437.89 196.90 437.54 196.49
  Q 434.99 193.55 430.69 189.09
  Q 429.46 187.83 428.63 185.82
  Q 426.91 181.65 423.18 178.51
  A 0.41 0.41 0.0 0 1 423.47 177.79
  L 429.80 178.28
  A 1.51 1.50 -7.6 0 1 431.09 179.26
  Q 432.28 182.60 435.07 186.12
  A 2.00 1.98 13.8 0 1 435.32 186.53
  Q 437.20 190.57 439.21 194.81
  Q 440.02 196.51 439.97 197.36
  A 0.41 0.41 0.0 0 1 439.36 197.70
  Z"
/>
<path fill="#744c28" d="
  M 429.77 277.67
  L 426.79 283.38
  A 1.04 0.75 -35.8 0 0 426.73 283.56
  Q 426.09 286.60 424.60 288.10
  Q 418.36 294.33 416.46 296.61
  C 413.43 300.24 410.13 302.66 405.99 306.52
  A 0.35 0.35 0.0 0 1 405.50 306.51
  L 405.42 306.42
  A 0.33 0.33 0.0 0 1 405.42 305.97
  Q 410.73 300.20 412.54 297.06
  Q 414.92 292.93 417.85 284.37
  A 5.17 4.88 -21.6 0 1 418.29 283.43
  Q 421.76 277.69 424.36 268.97
  A 7.09 7.07 48.9 0 0 424.57 265.80
  Q 423.85 261.35 422.89 259.28
  Q 417.79 248.29 414.26 239.99
  C 412.68 236.29 410.22 232.77 409.39 229.25
  A 6.25 6.18 22.9 0 0 408.63 227.41
  L 400.77 214.68
  A 1.60 1.58 -59.6 0 1 400.53 213.74
  L 401.33 197.66
  A 0.35 0.35 0.0 0 1 401.91 197.41
  C 404.51 199.57 406.35 200.92 409.93 202.01
  C 417.49 204.33 424.25 206.10 432.10 205.26
  C 435.03 204.95 437.05 204.04 439.28 202.34
  A 0.51 0.51 0.0 0 1 440.10 202.79
  C 439.61 208.70 440.30 215.23 439.89 221.17
  Q 439.76 223.07 439.94 226.07
  C 440.30 232.19 439.21 238.69 437.58 244.71
  A 5.39 5.30 48.4 0 0 437.47 246.88
  C 438.35 252.53 435.69 256.78 432.70 262.15
  Q 431.03 265.16 429.26 270.39
  A 0.57 0.57 0.0 0 1 429.16 270.59
  L 424.77 276.53
  A 1.07 1.07 0.0 0 0 425.86 278.21
  L 429.56 277.40
  A 0.19 0.19 0.0 0 1 429.77 277.67
  Z"
/>
<path fill="#301d00" d="
  M 48.22 222.72
  A 0.11 0.11 0.0 0 1 48.16 222.87
  L 48.15 222.88
  A 5.63 1.29 65.9 0 1 44.67 218.26
  L 44.51 217.92
  A 5.63 1.29 65.9 0 1 43.39 212.25
  L 43.41 212.24
  A 0.11 0.11 0.0 0 1 43.56 212.30
  L 48.22 222.72
  Z"
/>
<path fill="#301d00" d="
  M 334.80 218.83
  C 337.01 222.66 337.78 226.75 335.98 230.91
  Q 333.25 237.23 327.65 241.92
  A 1.53 1.53 0.0 0 1 325.13 240.65
  Q 325.59 233.58 324.38 227.34
  Q 323.26 221.59 319.06 217.94
  C 320.09 216.26 318.26 214.62 317.74 213.19
  A 0.52 0.51 -86.9 0 1 318.45 212.55
  C 325.68 216.15 328.58 224.22 329.85 231.77
  A 0.24 0.24 0.0 0 0 330.32 231.81
  C 331.92 227.23 329.81 221.29 332.78 218.21
  A 0.89 0.88 19.9 0 1 333.37 217.94
  Q 334.22 217.91 334.80 218.83
  Z"
/>
<path fill="#301d00" d="
  M 212.21 223.22
  C 209.43 225.03 206.93 226.92 203.89 228.35
  Q 195.03 232.52 188.70 234.83
  Q 183.98 236.56 177.88 235.47
  A 2.01 2.01 0.0 0 1 176.91 235.00
  C 174.32 232.69 176.22 230.51 178.45 228.70
  Q 182.72 225.22 187.45 220.98
  L 199.01 214.66
  A 0.53 0.53 0.0 0 1 199.71 215.42
  Q 194.44 223.27 186.47 228.61
  A 0.25 0.25 0.0 0 0 186.61 229.07
  Q 187.96 229.05 189.95 228.20
  Q 202.69 222.71 209.41 220.41
  Q 211.10 219.83 213.01 219.69
  A 0.47 0.47 0.0 0 1 213.51 220.24
  Q 213.24 221.84 212.21 223.22
  Z"
/>
<path fill="#301d00" d="
  M 270.56 231.47
  Q 265.07 240.42 254.99 245.76
  C 251.39 247.66 246.16 248.69 242.43 245.88
  A 0.78 0.77 48.0 0 1 242.49 244.59
  L 247.21 241.75
  A 1.45 1.43 -87.5 0 0 247.66 241.33
  L 252.58 234.33
  A 0.11 0.09 -53.6 0 0 252.57 234.21
  L 252.56 234.20
  A 0.18 0.18 0.0 0 0 252.32 234.20
  C 248.28 238.01 243.55 241.30 237.74 242.79
  Q 231.48 244.39 230.23 244.67
  Q 218.99 247.15 208.22 244.30
  Q 205.05 243.46 201.87 240.60
  A 0.53 0.53 0.0 0 1 202.14 239.68
  L 207.30 238.84
  A 2.20 2.08 20.1 0 0 208.23 238.44
  Q 214.70 233.63 218.87 228.96
  C 221.91 225.57 225.92 222.52 229.44 219.26
  Q 230.37 218.44 231.17 218.19
  A 0.90 0.90 0.0 0 1 232.34 218.98
  C 232.89 225.47 226.83 228.56 223.35 231.98
  C 220.53 234.74 216.53 236.87 214.49 238.73
  A 0.30 0.30 0.0 0 0 214.64 239.25
  Q 221.31 240.29 228.02 238.80
  Q 237.63 236.68 239.80 236.03
  Q 241.71 235.47 248.60 231.90
  A 4.51 4.43 9.5 0 0 249.50 231.27
  L 255.16 226.10
  A 2.55 1.65 -14.4 0 0 255.41 225.83
  Q 258.41 221.99 261.95 219.24
  A 0.32 0.31 60.8 0 1 262.44 219.38
  Q 262.54 219.69 262.42 220.01
  Q 262.02 221.11 260.10 224.41
  A 9.53 9.49 -24.3 0 0 259.00 227.31
  C 258.04 232.14 254.65 236.64 251.53 240.32
  A 0.30 0.30 0.0 0 0 251.90 240.78
  Q 264.45 234.34 273.00 222.95
  A 0.63 0.63 0.0 0 1 274.13 223.39
  C 273.85 226.49 271.41 228.48 270.56 231.47
  Z"
/>
<path fill="#301d00" d="
  M 51.05 246.76
  C 54.30 248.30 57.42 249.30 59.38 250.19
  A 0.14 0.14 0.0 0 1 59.32 250.45
  Q 54.36 250.61 50.17 248.62
  Q 45.98 246.62 42.97 242.68
  A 0.14 0.14 0.0 0 1 43.14 242.47
  C 45.06 243.43 47.81 245.22 51.05 246.76
  Z"
/>
<path fill="#301d00" d="
  M 125.37 253.71
  Q 119.96 255.93 113.72 257.34
  Q 113.21 257.46 112.98 257.39
  A 1.39 1.36 -66.3 0 1 112.21 255.35
  Q 112.92 254.16 114.54 253.20
  A 0.31 0.31 0.0 0 0 114.33 252.62
  Q 109.38 253.46 104.50 251.14
  A 0.38 0.38 0.0 0 1 104.41 250.51
  Q 105.06 249.93 106.36 249.50
  L 114.89 249.09
  A 2.78 2.77 26.2 0 0 116.33 248.60
  C 117.85 247.57 119.25 246.46 119.92 246.60
  A 1.70 1.50 -79.1 0 1 121.04 248.50
  Q 120.73 250.32 119.97 251.74
  A 0.43 0.42 -88.1 0 0 120.52 252.33
  Q 123.94 250.80 129.26 246.75
  Q 129.72 246.41 130.18 246.61
  A 0.52 0.52 0.0 0 1 130.39 247.39
  Q 128.20 250.41 125.37 253.71
  Z"
/>
<path fill="#301d00" d="
  M 50.85 261.59
  Q 56.21 260.12 63.44 262.09
  A 1.21 1.21 0.0 0 1 64.02 264.06
  C 63.14 265.05 60.95 265.34 59.15 265.49
  Q 53.87 265.95 50.65 262.23
  A 0.40 0.39 -28.1 0 1 50.85 261.59
  Z"
/>
<path fill="#301d00" d="
  M 163.71 306.75
  Q 161.94 303.56 160.17 300.50
  C 158.09 296.90 156.56 292.56 156.00 288.99
  Q 155.04 282.80 153.87 276.78
  Q 152.87 273.88 156.25 273.92
  C 163.07 274.02 170.22 273.62 176.58 273.73
  Q 195.54 274.06 213.50 273.66
  C 218.17 273.55 225.28 274.88 230.85 274.91
  Q 241.17 274.98 254.32 274.65
  Q 262.93 274.44 270.30 275.65
  A 2.34 2.32 -67.0 0 0 272.55 274.73
  L 278.65 266.48
  A 0.39 0.39 0.0 0 1 279.35 266.70
  Q 279.51 274.88 273.53 280.56
  Q 272.97 281.09 268.93 282.68
  A 1.97 1.91 10.6 0 0 268.19 283.17
  C 267.56 283.83 267.57 285.06 267.16 285.88
  C 265.51 289.19 263.36 294.31 260.63 297.57
  Q 255.49 303.70 249.90 307.90
  Q 248.68 308.81 242.28 312.85
  C 235.19 317.33 227.23 319.22 218.35 321.31
  Q 210.79 323.09 206.03 322.34
  Q 198.37 321.14 193.96 319.21
  Q 182.55 314.21 178.05 313.28
  Q 176.53 312.96 172.64 311.43
  Q 170.13 310.44 167.11 309.91
  Q 165.25 309.59 163.71 306.75
  Z"
/>
<path fill="#301d00" d="
  M 72.57 279.67
  C 68.49 279.22 63.46 278.28 61.08 274.85
  A 1.80 1.79 55.6 0 1 61.55 272.33
  Q 64.85 270.10 67.75 269.67
  A 0.64 0.64 0.0 0 1 68.36 270.69
  L 66.59 273.09
  A 0.82 0.82 0.0 0 0 67.11 274.39
  L 77.60 276.17
  A 4.33 4.28 -45.4 0 0 79.14 276.15
  Q 82.49 275.46 83.80 276.32
  Q 91.75 281.49 87.20 289.95
  Q 85.39 293.33 80.28 294.09
  Q 79.17 294.25 74.11 292.31
  A 3.33 3.30 -11.1 0 1 72.88 291.49
  Q 68.01 286.27 72.83 280.31
  A 0.39 0.39 0.0 0 0 72.57 279.67
  Z"
/>
<path fill="#301d00" d="
  M 111.46 276.41
  Q 109.91 280.28 107.06 282.85
  A 4.58 4.56 -78.8 0 1 105.90 283.63
  C 102.87 285.11 98.61 287.85 95.25 287.10
  A 1.40 1.39 29.2 0 1 94.58 284.74
  Q 97.66 281.71 97.97 281.07
  A 0.27 0.27 0.0 0 0 97.62 280.71
  Q 93.63 282.63 90.14 281.17
  A 0.63 0.63 0.0 0 1 90.28 279.96
  Q 95.66 279.08 100.34 276.31
  A 1.85 1.68 -22.1 0 1 103.04 277.30
  Q 103.24 278.30 102.12 279.65
  Q 99.53 282.78 98.81 283.77
  A 0.23 0.23 0.0 0 0 99.10 284.12
  L 106.61 280.50
  A 1.83 1.76 7.4 0 0 107.15 280.10
  L 110.88 276.05
  A 0.35 0.35 0.0 0 1 111.46 276.41
  Z"
/>
<path fill="#e2d8cc" d="
  M 153.87 276.78
  Q 155.04 282.80 156.00 288.99
  C 156.56 292.56 158.09 296.90 160.17 300.50
  Q 161.94 303.56 163.71 306.75
  C 156.49 308.11 150.29 303.17 148.71 296.30
  C 147.86 292.62 146.36 279.77 149.82 277.15
  A 1.47 1.46 25.6 0 1 150.68 276.85
  L 153.87 276.78
  Z"
/>
<path fill="#600f0f" d="
  M 76.13 282.42
  Q 74.71 287.39 79.33 288.68
  A 1.22 1.21 8.6 0 0 80.87 287.55
  Q 80.94 285.12 82.89 283.83
  A 0.71 0.70 54.8 0 0 83.06 282.83
  Q 82.15 281.58 80.17 281.13
  Q 85.59 279.61 86.28 285.22
  A 1.64 1.60 52.9 0 1 86.18 286.01
  Q 83.64 292.62 77.08 290.58
  Q 72.67 289.20 73.56 284.54
  A 1.75 1.73 71.3 0 1 73.94 283.76
  Q 74.89 282.66 76.13 282.42
  Z"
/>
<path fill="#ffffff" d="
  M 80.17 281.13
  Q 82.15 281.58 83.06 282.83
  A 0.71 0.70 54.8 0 1 82.89 283.83
  Q 80.94 285.12 80.87 287.55
  A 1.22 1.21 8.6 0 1 79.33 288.68
  Q 74.71 287.39 76.13 282.42
  L 76.55 282.04
  Q 76.89 281.87 77.02 281.55
  Q 78.53 280.80 80.17 281.13
  Z"
/>
<path fill="#744c28" d="
  M 77.02 281.55
  Q 76.89 281.87 76.55 282.04
  Q 76.62 281.65 77.02 281.55
  Z"
/>
<path fill="#e2d8cc" d="
  M 265.57 283.33
  A 0.65 0.65 0.0 0 1 266.11 284.37
  Q 262.10 289.58 259.19 294.15
  C 254.69 301.22 245.20 305.09 237.87 309.14
  C 231.50 312.66 223.30 313.25 216.01 314.76
  Q 214.21 315.14 204.96 314.70
  A 13.08 12.63 40.3 0 0 202.19 314.88
  Q 198.23 315.58 197.02 315.03
  Q 186.31 310.16 175.25 307.91
  A 4.29 4.26 76.4 0 1 172.76 306.38
  Q 168.01 300.32 165.06 293.97
  Q 164.25 292.24 162.47 284.33
  A 0.50 0.49 82.9 0 1 162.94 283.72
  L 213.83 283.16
  A 0.85 0.84 -4.2 0 1 214.68 283.89
  C 215.80 292.18 226.73 295.31 233.37 294.02
  Q 237.13 293.29 241.14 288.65
  C 242.15 287.47 242.45 285.54 243.36 284.35
  A 1.06 1.04 -71.9 0 1 244.14 283.95
  L 265.57 283.33
  Z"
/>
<path fill="#600f0f" d="
  M 226.22 285.24
  C 224.88 284.39 222.40 285.28 222.45 286.90
  A 1.33 1.32 -4.8 0 0 223.97 288.18
  Q 226.49 287.81 226.58 285.67
  Q 227.78 287.54 230.10 285.08
  A 2.92 2.91 21.8 0 1 232.24 284.17
  L 238.07 284.21
  A 0.58 0.57 9.1 0 1 238.62 284.96
  C 236.59 291.02 232.68 291.33 227.10 291.11
  Q 225.73 291.06 224.80 290.28
  C 222.19 288.11 218.61 288.67 217.48 285.09
  A 1.38 1.37 88.6 0 1 219.14 283.34
  Q 222.40 284.22 225.20 284.38
  Q 225.62 284.41 225.87 284.63
  Q 226.17 284.89 226.22 285.24
  Z"
/>
<path fill="#e2d8cc" d="
  M 404.28 285.79
  L 407.58 285.93
  A 0.54 0.54 0.0 0 1 408.09 286.56
  C 407.98 287.25 407.10 287.93 406.86 289.06
  Q 404.29 301.10 393.83 308.26
  A 1.52 1.48 26.1 0 1 393.00 308.53
  L 386.84 308.69
  Q 380.35 309.43 375.01 312.64
  A 4.42 4.27 21.8 0 1 373.74 313.16
  Q 368.63 314.44 363.40 314.31
  C 358.53 314.19 356.13 313.37 350.59 312.21
  C 344.24 310.87 337.31 308.24 332.69 303.31
  Q 328.22 298.54 324.98 293.51
  A 9.69 9.52 -84.9 0 0 323.56 291.78
  Q 320.49 288.80 318.36 285.48
  A 0.34 0.33 75.4 0 1 318.66 284.96
  L 331.13 285.94
  A 0.45 0.45 0.0 0 1 331.52 286.23
  C 334.38 293.81 339.32 294.53 347.22 296.09
  A 5.01 4.85 45.9 0 0 348.78 296.14
  Q 354.40 295.38 358.78 290.44
  C 359.89 289.19 360.12 287.94 360.99 286.76
  A 1.14 1.10 -70.9 0 1 361.88 286.31
  L 404.28 285.79
  Z"
/>
<path fill="#ffffff" d="
  M 226.22 285.24
  Q 226.42 285.66 226.58 285.67
  Q 226.49 287.81 223.97 288.18
  A 1.33 1.32 -4.8 0 1 222.45 286.90
  C 222.40 285.28 224.88 284.39 226.22 285.24
  Z"
/>
<path fill="#744c28" d="
  M 386.84 308.69
  L 393.00 308.53
  A 1.52 1.48 26.1 0 0 393.83 308.26
  Q 404.29 301.10 406.86 289.06
  C 407.10 287.93 407.98 287.25 408.09 286.56
  A 0.54 0.54 0.0 0 0 407.58 285.93
  L 404.28 285.79
  L 407.96 285.48
  A 0.73 0.72 7.0 0 1 408.71 286.44
  C 407.45 290.04 407.07 293.50 405.16 296.90
  Q 400.78 304.70 393.95 308.95
  A 3.04 3.04 0.0 0 1 391.42 309.28
  Q 389.26 308.61 386.84 308.69
  Z"
/>
<path fill="#ffffff" d="
  M 193.62 289.88
  C 196.00 297.24 186.55 296.70 182.57 296.53
  C 176.05 296.27 176.14 288.18 181.55 286.74
  Q 187.57 285.13 192.67 288.61
  Q 193.37 289.09 193.62 289.88
  Z"
/>
<path fill="#600f0f" d="
  M 338.94 289.33
  Q 340.01 289.54 340.89 289.31
  Q 341.54 289.14 341.73 288.63
  Q 341.93 288.12 341.77 287.49
  Q 344.75 288.64 345.92 287.37
  A 3.85 3.85 0.0 0 1 348.69 286.29
  L 355.80 286.43
  A 0.84 0.84 0.0 0 1 356.45 287.78
  Q 351.40 294.27 343.14 292.05
  A 1.94 1.72 66.8 0 1 342.61 291.80
  L 338.94 289.33
  Z"
/>
<path fill="#ffffff" d="
  M 341.77 287.49
  Q 341.93 288.12 341.73 288.63
  Q 341.54 289.14 340.89 289.31
  Q 340.01 289.54 338.94 289.33
  Q 337.55 287.30 339.16 286.61
  Q 341.42 285.64 341.77 287.49
  Z"
/>
<ellipse fill="#ffffff" cx="0.00" cy="0.00" transform="translate(329.50,290.45) rotate(-58.3)" rx="3.34" ry="2.65"/>
<path fill="#301d00" d="
  M 321.93 309.89
  L 315.38 310.90
  A 10.37 10.02 -46.0 0 1 313.00 310.98
  Q 308.80 310.63 300.86 310.25
  Q 295.77 310.00 292.67 310.20
  Q 287.31 310.55 284.44 310.14
  C 282.26 309.82 280.05 310.70 277.90 310.70
  A 0.27 0.26 36.5 0 1 277.82 310.18
  Q 284.89 308.09 290.53 307.44
  C 296.08 306.80 303.04 307.26 308.37 307.42
  Q 313.35 307.57 321.94 309.59
  A 0.15 0.15 0.0 0 1 321.93 309.89
  Z"
/>
<path fill="#3e1e21" d="
  M 405.02 400.53
  L 405.33 395.57
  A 1.10 1.07 62.6 0 1 405.46 395.14
  Q 406.02 394.07 407.82 394.02
  A 0.89 0.89 0.0 0 0 408.68 393.03
  C 408.26 389.09 407.65 386.78 410.19 383.76
  A 1.59 1.58 -30.1 0 0 410.54 382.46
  Q 410.06 379.72 410.94 377.45
  A 3.49 3.46 -40.9 0 0 411.09 375.47
  C 410.64 373.37 409.70 369.67 412.43 368.54
  A 0.80 0.79 -22.6 0 0 412.86 367.51
  Q 411.87 365.08 411.41 363.07
  C 411.09 361.70 412.09 361.39 412.66 360.42
  A 1.20 1.18 49.8 0 0 412.74 359.35
  C 411.62 356.66 412.82 353.76 411.96 351.37
  Q 410.71 347.89 408.32 345.79
  A 3.06 2.72 8.0 0 1 407.81 345.19
  Q 404.63 340.05 403.71 335.72
  C 403.21 333.35 400.87 331.53 401.87 329.08
  A 0.89 0.88 28.7 0 0 401.55 328.01
  Q 401.28 327.83 400.89 327.79
  Q 400.47 327.74 400.13 327.49
  Q 397.48 325.49 397.20 324.82
  Q 395.63 321.03 395.60 317.41
  A 0.90 0.90 0.0 0 0 394.93 316.54
  L 389.47 315.02
  A 1.24 1.22 -39.8 0 0 388.98 314.98
  L 383.25 315.65
  Q 390.86 313.21 398.79 312.55
  A 0.88 0.86 53.8 0 1 399.27 312.63
  L 405.47 315.44
  A 0.71 0.71 0.0 0 1 405.45 316.74
  L 399.68 319.10
  A 1.70 1.70 0.0 0 0 399.31 322.04
  L 405.62 326.70
  A 0.48 0.48 0.0 0 1 405.55 327.52
  Q 403.39 328.58 403.68 329.69
  A 1.33 1.32 12.3 0 0 404.12 330.37
  Q 416.88 341.00 416.59 357.26
  Q 416.25 376.38 408.63 394.60
  Q 407.78 396.63 405.02 400.53
  Z"
/>
<path fill="#301d00" d="
  M 264.41 320.71
  Q 275.57 317.91 283.53 315.99
  Q 289.16 314.64 296.20 314.46
  C 301.51 314.33 312.58 312.56 320.50 314.47
  Q 329.12 316.55 335.41 319.12
  A 0.41 0.41 0.0 0 1 335.33 319.90
  C 331.12 320.78 328.95 321.07 324.60 319.93
  Q 316.70 317.87 315.02 317.94
  Q 301.75 318.49 294.53 318.63
  C 288.91 318.74 284.27 319.96 278.14 319.94
  Q 271.23 319.91 266.15 321.14
  Q 265.41 321.32 264.45 321.22
  A 0.26 0.26 0.0 0 1 264.41 320.71
  Z"
/>
<path fill="#3e1e21" d="
  M 151.62 322.57
  C 151.88 324.01 153.42 324.97 153.11 326.40
  Q 152.06 331.29 148.10 332.82
  Q 143.53 334.58 139.90 335.69
  A 0.84 0.83 58.8 0 0 139.56 337.08
  L 140.58 338.10
  A 2.35 2.35 0.0 0 1 140.58 341.42
  L 138.03 343.98
  A 0.92 0.91 -35.5 0 0 137.85 345.02
  Q 138.80 347.03 136.32 349.02
  A 1.13 1.04 -49.8 0 0 136.39 350.84
  Q 137.85 351.57 136.70 353.71
  Q 135.90 355.19 134.18 357.52
  A 1.48 1.40 -28.0 0 0 133.89 358.38
  L 133.88 360.67
  A 2.84 2.83 60.5 0 1 133.50 362.05
  L 129.90 368.30
  A 0.38 0.38 0.0 0 0 130.31 368.86
  L 130.64 368.79
  A 1.04 1.04 0.0 0 1 131.80 370.26
  Q 129.11 375.89 127.96 378.86
  A 1.26 1.07 -67.5 0 0 128.45 380.38
  C 130.28 381.24 129.32 384.19 128.90 385.63
  A 0.41 0.40 83.9 0 0 129.48 386.10
  Q 129.72 385.96 129.87 385.65
  A 0.93 0.89 50.8 0 1 131.56 385.85
  C 132.45 388.96 130.76 394.50 130.07 397.75
  Q 129.89 398.56 130.05 398.85
  A 0.18 0.18 0.0 0 0 130.38 398.78
  Q 130.66 395.59 132.51 395.24
  A 0.93 0.91 -20.1 0 1 133.46 395.67
  Q 134.65 397.69 134.35 400.59
  A 1.81 1.79 30.9 0 0 134.66 401.80
  C 136.60 404.64 135.74 408.97 135.88 411.08
  Q 135.92 411.69 136.59 411.84
  A 0.51 0.50 14.9 0 0 137.17 411.51
  Q 137.61 410.14 138.17 409.80
  Q 139.04 409.26 139.67 410.22
  C 140.65 411.74 140.56 414.08 140.74 416.30
  A 0.34 0.34 0.0 0 0 141.31 416.51
  C 141.70 416.12 141.60 415.78 142.38 415.30
  C 144.14 414.22 145.38 415.74 145.62 417.40
  Q 146.18 421.30 146.18 422.88
  Q 146.18 423.96 146.73 424.28
  A 0.37 0.37 0.0 0 0 147.29 424.01
  Q 147.73 420.74 148.86 420.59
  A 1.70 1.38 79.0 0 1 150.47 421.94
  Q 151.06 424.54 151.48 428.32
  A 0.63 0.63 0.0 0 0 152.65 428.57
  Q 152.91 428.15 153.19 427.78
  Q 153.28 427.66 154.03 427.44
  Q 154.72 427.23 154.69 426.28
  L 154.49 430.45
  L 153.41 435.70
  Q 153.16 434.85 152.60 434.58
  Q 139.44 428.17 132.03 416.23
  Q 129.13 411.55 127.27 408.04
  Q 120.30 394.85 119.54 380.01
  Q 119.44 378.08 120.15 368.78
  Q 120.59 362.95 122.48 358.53
  Q 125.54 351.35 129.73 344.76
  A 1.77 1.76 27.3 0 0 128.90 342.18
  C 125.82 340.94 122.20 342.38 119.31 344.10
  A 0.26 0.26 0.0 0 1 118.99 343.71
  C 122.32 340.06 126.02 337.42 131.03 335.82
  Q 135.10 334.53 141.58 331.42
  A 1.42 1.41 -9.7 0 0 142.37 330.31
  Q 142.77 327.00 140.35 324.55
  Q 134.82 318.97 134.31 318.60
  A 0.22 0.22 0.0 0 1 134.44 318.20
  Q 136.99 318.27 142.54 320.70
  Q 146.13 322.28 151.62 322.57
  Z"
/>
<path fill="#df9a9d" d="
  M 386.14 398.70
  Q 383.87 402.65 382.24 406.82
  Q 380.71 410.75 379.17 412.81
  C 375.85 417.24 372.46 422.62 368.66 423.96
  Q 356.69 428.18 354.40 429.07
  Q 349.29 431.03 345.49 431.05
  Q 338.69 431.09 331.00 431.34
  C 325.37 431.53 318.53 429.21 312.95 427.39
  A 0.50 0.50 0.0 0 1 312.75 426.56
  L 314.59 424.72
  A 0.49 0.49 0.0 0 0 314.04 423.93
  Q 310.34 425.65 305.16 425.63
  A 10.18 9.98 -52.8 0 0 302.12 426.08
  Q 284.33 431.52 264.48 432.36
  Q 254.59 432.77 243.58 430.52
  Q 238.67 429.51 232.88 426.57
  Q 221.03 420.55 219.88 419.92
  C 216.14 417.88 216.29 415.33 214.47 413.24
  Q 209.59 407.64 206.83 400.31
  A 1.53 1.19 38.0 0 1 206.75 399.99
  L 204.66 385.46
  L 204.98 381.99
  A 0.25 0.25 0.0 0 0 204.50 381.88
  L 204.10 382.96
  A 1.48 1.48 0.0 0 1 201.24 382.56
  C 200.70 376.24 202.73 370.71 205.56 364.98
  Q 211.22 353.51 222.87 346.33
  Q 225.67 344.61 229.04 343.82
  C 237.39 341.87 248.94 340.71 257.51 343.98
  C 264.69 346.72 267.93 347.29 276.83 350.14
  Q 283.51 352.29 288.48 353.05
  Q 298.03 354.53 307.38 354.88
  Q 313.46 355.11 321.02 353.48
  Q 333.47 350.80 345.39 346.33
  Q 342.92 351.96 349.49 352.03
  L 347.62 353.65
  A 0.62 0.62 0.0 0 0 348.04 354.74
  C 352.73 354.65 357.47 352.09 360.97 350.47
  Q 364.51 348.82 367.94 351.50
  A 0.70 0.69 -41.2 0 1 367.86 352.65
  L 363.60 355.11
  A 0.42 0.41 27.1 0 0 363.85 355.88
  Q 366.96 355.59 370.24 355.53
  C 374.02 355.47 376.67 351.92 372.78 349.21
  C 369.51 346.94 364.81 344.99 361.23 346.45
  Q 358.18 347.70 356.97 347.89
  Q 357.30 344.79 351.04 344.60
  Q 358.91 340.82 367.49 341.01
  C 377.46 341.23 382.18 347.61 386.92 355.58
  Q 388.94 358.97 389.63 362.62
  Q 390.07 364.95 390.64 372.76
  Q 391.67 386.66 386.14 398.70
  Z"
/>
<path fill="#ffffff" d="
  M 351.04 344.60
  Q 357.30 344.79 356.97 347.89
  L 349.49 352.03
  Q 342.92 351.96 345.39 346.33
  L 351.04 344.60
  Z"
/>
<path fill="#301d00" d="
  M 373.04 344.86
  Q 380.83 345.00 381.17 352.66
  Q 381.37 357.44 377.04 359.31
  Q 376.00 359.76 375.91 359.73
  A 1.19 1.18 -67.5 0 1 375.19 357.98
  L 377.61 353.90
  A 1.02 0.92 -31.6 0 0 377.74 353.46
  Q 377.96 350.28 376.74 348.10
  A 2.21 2.12 -88.8 0 0 376.08 347.38
  L 372.92 345.25
  A 0.21 0.21 0.0 0 1 373.04 344.86
  Z"
/>
<path fill="#ffffff" d="
  M 245.18 346.64
  A 1.50 1.35 59.7 0 1 244.80 348.47
  Q 242.44 350.09 239.90 351.79
  A 1.32 1.31 73.5 0 1 237.86 350.68
  L 237.86 349.82
  A 3.18 3.18 0.0 0 1 239.61 347.01
  Q 242.25 345.69 244.24 345.89
  A 0.93 0.93 0.0 0 1 244.78 346.13
  Q 245.03 346.35 245.18 346.64
  Z"
/>
<path fill="#301d00" d="
  M 349.49 352.03
  L 356.97 347.89
  Q 358.18 347.70 361.23 346.45
  C 364.81 344.99 369.51 346.94 372.78 349.21
  C 376.67 351.92 374.02 355.47 370.24 355.53
  Q 366.96 355.59 363.85 355.88
  A 0.42 0.41 27.1 0 1 363.60 355.11
  L 367.86 352.65
  A 0.70 0.69 -41.2 0 0 367.94 351.50
  Q 364.51 348.82 360.97 350.47
  C 357.47 352.09 352.73 354.65 348.04 354.74
  A 0.62 0.62 0.0 0 1 347.62 353.65
  L 349.49 352.03
  Z"
/>
<ellipse fill="#ffffff" cx="0.00" cy="0.00" transform="translate(226.77,351.84) rotate(-37.7)" rx="5.28" ry="3.56"/>
<path fill="#301d00" d="
  M 271.63 357.48
  A 0.46 0.46 0.0 0 1 271.13 358.19
  L 257.70 354.46
  A 4.30 4.11 64.7 0 1 257.02 354.20
  C 253.64 352.54 250.73 351.43 247.07 353.19
  A 0.68 0.67 -49.7 0 0 247.17 354.45
  Q 251.02 355.55 253.22 357.51
  A 1.29 1.29 0.0 0 1 252.75 359.71
  Q 251.93 359.96 250.41 359.57
  C 246.86 358.66 238.98 355.95 243.21 350.98
  C 247.48 345.96 252.12 346.93 257.89 349.43
  C 262.48 351.42 268.43 352.84 271.63 357.48
  Z"
/>
<path fill="#3e1e21" d="
  M 236.52 352.06
  Q 236.62 352.75 237.49 354.49
  A 0.61 0.61 0.0 0 1 236.74 355.34
  Q 234.60 354.58 234.28 352.40
  Q 233.95 350.23 235.76 348.87
  A 0.61 0.61 0.0 0 1 236.73 349.46
  Q 236.41 351.38 236.52 352.06
  Z"
/>
<ellipse fill="#ffffff" cx="0.00" cy="0.00" transform="translate(321.16,363.16) rotate(-14.3)" rx="6.47" ry="4.28"/>
<ellipse fill="#ffffff" cx="0.00" cy="0.00" transform="translate(305.12,362.67) rotate(-163.4)" rx="3.35" ry="2.71"/>
<path fill="#301d00" d="
  M 204.66 385.46
  L 206.75 399.99
  A 1.53 1.19 38.0 0 0 206.83 400.31
  Q 209.59 407.64 214.47 413.24
  C 216.29 415.33 216.14 417.88 219.88 419.92
  Q 221.03 420.55 232.88 426.57
  Q 238.67 429.51 243.58 430.52
  Q 254.59 432.77 264.48 432.36
  Q 284.33 431.52 302.12 426.08
  A 10.18 9.98 -52.8 0 1 305.16 425.63
  Q 310.34 425.65 314.04 423.93
  A 0.49 0.49 0.0 0 1 314.59 424.72
  L 312.75 426.56
  A 0.50 0.50 0.0 0 0 312.95 427.39
  C 318.53 429.21 325.37 431.53 331.00 431.34
  Q 338.69 431.09 345.49 431.05
  Q 349.29 431.03 354.40 429.07
  Q 356.69 428.18 368.66 423.96
  C 372.46 422.62 375.85 417.24 379.17 412.81
  Q 380.71 410.75 382.24 406.82
  Q 383.87 402.65 386.14 398.70
  Q 386.68 398.45 386.97 398.87
  A 0.34 0.33 -58.3 0 1 387.03 399.14
  C 385.61 405.86 385.10 412.48 380.72 417.95
  Q 376.49 423.23 371.79 427.19
  Q 363.90 432.23 361.89 442.15
  Q 361.64 443.38 358.93 446.60
  A 2.33 2.31 -77.4 0 1 357.79 447.33
  Q 355.54 447.96 353.70 449.40
  A 1.67 1.62 -63.3 0 1 352.69 449.75
  C 308.38 449.70 293.59 449.91 260.35 449.10
  Q 238.80 448.58 225.07 448.60
  Q 224.02 448.60 219.59 447.97
  A 4.28 4.13 40.8 0 0 217.94 448.06
  Q 214.60 448.94 213.76 448.94
  Q 203.95 448.91 198.40 448.85
  C 189.71 448.75 181.60 439.91 180.56 431.47
  Q 179.68 424.25 180.06 421.03
  Q 180.49 417.48 183.71 406.25
  Q 185.78 399.05 184.45 392.19
  A 1.22 1.21 -0.7 0 0 183.46 391.23
  C 178.18 390.35 173.73 388.64 167.97 389.27
  L 167.62 389.18
  A 0.54 0.54 0.0 0 1 167.56 388.16
  L 175.53 385.05
  A 3.46 3.28 30.6 0 1 176.49 384.83
  Q 182.87 384.39 186.87 385.18
  Q 193.00 386.38 199.47 389.42
  A 0.60 0.60 0.0 0 0 200.29 389.09
  L 201.88 384.85
  A 0.75 0.75 0.0 0 1 202.67 384.38
  Q 203.88 384.52 204.66 385.46
  Z"
/>
<path fill="#e2d8cc" d="
  M 371.79 427.19
  Q 375.21 431.78 377.21 437.22
  L 377.30 438.82
  A 1.26 1.24 20.2 0 0 377.69 439.65
  Q 382.52 444.20 379.20 450.27
  C 377.05 454.17 375.87 457.34 371.52 457.34
  Q 302.00 457.40 205.36 457.32
  Q 204.15 457.32 202.16 457.51
  Q 200.59 457.66 198.93 457.67
  Q 184.08 457.73 169.33 457.50
  L 160.81 456.77
  A 1.24 1.13 -26.9 0 1 160.38 456.65
  C 155.32 454.43 153.85 446.92 154.54 442.13
  C 154.86 439.92 156.64 438.27 154.71 435.93
  A 1.82 1.80 26.9 0 1 154.29 434.67
  L 154.49 430.45
  L 154.69 426.28
  Q 154.58 421.25 153.69 412.00
  C 153.25 407.46 154.80 402.66 157.00 398.64
  Q 160.62 392.02 167.97 389.27
  C 173.73 388.64 178.18 390.35 183.46 391.23
  A 1.22 1.21 -0.7 0 1 184.45 392.19
  Q 185.78 399.05 183.71 406.25
  Q 180.49 417.48 180.06 421.03
  Q 179.68 424.25 180.56 431.47
  C 181.60 439.91 189.71 448.75 198.40 448.85
  Q 203.95 448.91 213.76 448.94
  Q 214.60 448.94 217.94 448.06
  A 4.28 4.13 40.8 0 1 219.59 447.97
  Q 224.02 448.60 225.07 448.60
  Q 238.80 448.58 260.35 449.10
  C 293.59 449.91 308.38 449.70 352.69 449.75
  A 1.67 1.62 -63.3 0 0 353.70 449.40
  Q 355.54 447.96 357.79 447.33
  A 2.33 2.31 -77.4 0 0 358.93 446.60
  Q 361.64 443.38 361.89 442.15
  Q 363.90 432.23 371.79 427.19
  Z"
/>
<path fill="#e2d8cc" d="
  M 360.83 433.58
  C 359.51 436.48 357.19 439.24 358.45 443.08
  A 0.62 0.62 0.0 0 1 358.06 443.86
  L 351.67 446.07
  A 2.75 2.69 -53.7 0 1 350.81 446.21
  C 329.54 446.25 296.49 446.12 266.83 446.68
  Q 252.21 446.95 232.00 447.19
  Q 225.19 447.27 221.55 447.61
  A 3.18 3.09 53.8 0 1 219.95 447.34
  C 218.29 446.56 216.24 446.84 214.35 446.48
  Q 209.47 445.53 208.50 445.45
  C 204.07 445.12 197.98 444.88 194.47 443.02
  Q 187.38 439.26 186.07 430.72
  Q 184.93 423.31 186.63 416.58
  Q 189.35 405.85 190.12 399.26
  Q 190.24 398.21 189.56 393.20
  A 0.39 0.39 0.0 0 1 190.03 392.76
  Q 195.67 394.09 199.85 397.14
  A 2.67 2.63 9.7 0 1 200.80 398.46
  L 202.49 403.89
  A 0.96 0.17 80.0 0 0 202.53 404.00
  C 204.29 407.53 205.21 410.39 207.54 413.36
  Q 211.16 417.98 214.96 421.69
  Q 218.07 424.72 223.02 427.90
  C 227.47 430.76 231.43 433.65 236.02 435.89
  A 5.63 5.47 -26.7 0 0 237.58 436.38
  Q 241.91 437.05 249.97 438.54
  Q 257.31 439.89 265.25 439.45
  Q 282.35 438.48 298.61 434.09
  Q 302.31 433.09 304.96 431.86
  A 1.66 1.66 0.0 0 1 306.31 431.84
  Q 317.98 436.84 328.27 437.62
  Q 329.77 437.73 336.53 437.42
  Q 339.42 437.28 343.98 437.26
  Q 352.47 437.22 360.34 433.12
  A 0.36 0.35 -1.6 0 1 360.83 433.58
  Z"
/>
<path fill="#301d00" d="
  M 194.66 417.01
  Q 193.94 420.28 195.19 424.37
  C 195.44 425.20 195.55 426.77 195.34 427.59
  A 1.28 1.28 0.0 0 1 192.96 427.85
  Q 189.28 420.70 193.10 415.25
  A 2.10 2.08 58.4 0 0 193.46 413.72
  Q 192.89 410.07 194.53 407.36
  A 0.65 0.65 0.0 0 1 195.73 407.69
  Q 195.79 412.18 198.34 416.20
  Q 200.58 419.75 200.95 420.45
  A 1.07 1.07 0.0 0 1 199.93 422.01
  C 197.70 421.85 195.85 418.94 195.09 416.98
  A 0.23 0.22 40.8 0 0 194.66 417.01
  Z"
/>
<path fill="#301d00" d="
  M 207.46 429.04
  A 1.31 1.31 0.0 0 1 205.33 429.75
  C 200.64 425.72 201.71 420.12 204.63 415.64
  Q 205.31 414.60 205.86 414.52
  A 1.23 1.02 88.5 0 1 207.02 415.85
  Q 206.94 417.23 206.13 422.44
  A 3.79 3.78 -50.8 0 0 206.32 424.33
  Q 206.77 425.55 207.24 427.21
  Q 207.59 428.48 207.46 429.04
  Z"
/>
<path fill="#df9a9d" d="
  M 154.49 430.45
  L 154.29 434.67
  A 1.82 1.80 26.9 0 0 154.71 435.93
  C 156.64 438.27 154.86 439.92 154.54 442.13
  C 153.85 446.92 155.32 454.43 160.38 456.65
  A 1.24 1.13 -26.9 0 0 160.81 456.77
  L 169.33 457.50
  Q 164.65 458.93 160.08 457.57
  A 2.72 2.68 72.0 0 1 159.27 457.15
  C 152.78 452.07 152.92 446.18 154.59 438.73
  A 1.35 1.33 37.9 0 0 154.47 437.81
  L 153.41 435.70
  L 154.49 430.45
  Z"
/>
<path fill="#301d00" d="
  M 317.10 439.50
  A 0.14 0.14 0.0 0 1 316.96 439.64
  L 311.34 439.65
  A 18.24 1.21 -0.1 0 1 293.10 438.47
  L 293.10 438.21
  A 18.24 1.21 -0.1 0 1 311.34 436.97
  L 316.96 436.96
  A 0.14 0.14 0.0 0 1 317.10 437.10
  L 317.10 439.50
  Z"
/>
</svg>
