<?xml version="1.0" encoding="UTF-8" standalone="no"?>
<!DOCTYPE svg PUBLIC "-//W3C//DTD SVG 1.1//EN" "http://www.w3.org/Graphics/SVG/1.1/DTD/svg11.dtd">
<svg xmlns="http://www.w3.org/2000/svg" version="1.1" viewBox="0.00 0.00 900.00 515.00">
<path fill="#faaf3a" d="
  M 601.87 0.00
  L 585.83 93.56
  A 0.60 0.59 -77.8 0 0 586.26 94.24
  L 684.52 122.00
  A 0.79 0.78 8.1 0 1 685.10 122.77
  L 684.39 212.32
  A 0.52 0.51 -89.4 0 0 684.89 212.84
  L 767.48 214.29
  A 0.60 0.60 0.0 0 1 768.07 214.91
  L 765.90 296.26
  A 0.31 0.30 -0.0 0 0 766.22 296.57
  L 886.79 291.96
  A 0.63 0.63 0.0 0 1 887.44 292.67
  Q 881.59 338.91 863.31 382.07
  C 851.89 409.03 835.97 435.19 815.35 455.66
  Q 788.25 482.54 752.09 495.16
  Q 721.81 505.73 693.30 511.10
  Q 682.73 513.09 672.09 515.00
  L 533.73 515.00
  Q 535.33 471.10 538.04 427.24
  C 541.26 375.19 543.09 325.29 538.36 275.39
  Q 536.92 260.17 533.22 242.28
  C 528.39 218.92 519.20 193.40 499.27 179.77
  C 475.50 163.49 445.90 152.93 416.80 147.19
  Q 381.98 140.31 345.75 139.79
  Q 273.92 138.77 205.39 156.64
  Q 194.06 159.60 182.41 163.71
  A 0.81 0.81 0.0 0 0 181.88 164.41
  L 175.66 248.34
  A 0.55 0.54 84.7 0 0 176.34 248.91
  Q 214.65 239.00 253.49 233.71
  C 288.17 228.99 324.37 227.40 358.64 234.32
  C 381.78 239.00 403.78 251.11 416.18 271.32
  C 426.64 288.38 428.91 309.82 425.06 329.52
  A 0.69 0.69 0.0 0 1 424.33 330.07
  Q 364.59 324.51 305.40 334.42
  C 264.74 341.23 222.17 355.93 192.10 384.85
  Q 179.60 396.88 171.93 412.18
  Q 157.15 441.67 156.94 474.22
  C 156.86 485.76 158.94 498.20 163.66 509.06
  Q 164.94 512.02 166.16 515.00
  L 0.00 515.00
  L 0.00 232.28
  Q 3.97 199.90 12.17 168.40
  C 23.09 126.43 42.63 84.89 77.06 57.07
  C 121.20 21.40 178.00 8.19 232.98 0.00
  L 601.87 0.00
  Z"
/>
<path fill="#ffffff" d="
  M 900.00 0.00
  L 900.00 3.64
  Q 896.63 25.72 894.99 48.00
  Q 892.71 79.01 891.73 104.00
  Q 888.50 186.72 889.03 266.56
  A 0.34 0.34 0.0 0 1 888.70 266.91
  L 789.77 270.69
  A 0.70 0.69 -0.8 0 1 789.04 269.99
  L 789.68 189.49
  A 0.48 0.48 0.0 0 0 789.21 189.01
  L 706.71 186.80
  A 0.38 0.38 0.0 0 1 706.34 186.41
  L 708.48 106.30
  A 0.41 0.40 -81.3 0 0 708.20 105.91
  L 613.71 78.38
  A 0.38 0.37 -77.0 0 1 613.44 77.94
  L 628.46 0.00
  L 900.00 0.00
  Z"
/>
<path fill="#ffffff" d="
  M 533.73 515.00
  L 416.56 515.00
  L 423.80 406.28
  A 0.60 0.59 2.3 0 0 423.21 405.65
  Q 389.47 405.13 363.00 405.83
  C 342.15 406.37 319.91 407.84 299.85 413.60
  C 273.68 421.11 257.49 437.89 249.91 463.84
  C 244.56 482.16 251.97 501.24 264.60 515.00
  L 166.16 515.00
  Q 164.94 512.02 163.66 509.06
  C 158.94 498.20 156.86 485.76 156.94 474.22
  Q 157.15 441.67 171.93 412.18
  Q 179.60 396.88 192.10 384.85
  C 222.17 355.93 264.74 341.23 305.40 334.42
  Q 364.59 324.51 424.33 330.07
  A 0.69 0.69 0.0 0 0 425.06 329.52
  C 428.91 309.82 426.64 288.38 416.18 271.32
  C 403.78 251.11 381.78 239.00 358.64 234.32
  C 324.37 227.40 288.17 228.99 253.49 233.71
  Q 214.65 239.00 176.34 248.91
  A 0.55 0.54 84.7 0 1 175.66 248.34
  L 181.88 164.41
  A 0.81 0.81 0.0 0 1 182.41 163.71
  Q 194.06 159.60 205.39 156.64
  Q 273.92 138.77 345.75 139.79
  Q 381.98 140.31 416.80 147.19
  C 445.90 152.93 475.50 163.49 499.27 179.77
  C 519.20 193.40 528.39 218.92 533.22 242.28
  Q 536.92 260.17 538.36 275.39
  C 543.09 325.29 541.26 375.19 538.04 427.24
  Q 535.33 471.10 533.73 515.00
  Z"
/>
<path fill="#faaf3a" d="
  M 416.56 515.00
  L 264.60 515.00
  C 251.97 501.24 244.56 482.16 249.91 463.84
  C 257.49 437.89 273.68 421.11 299.85 413.60
  C 319.91 407.84 342.15 406.37 363.00 405.83
  Q 389.47 405.13 423.21 405.65
  A 0.60 0.59 2.3 0 1 423.80 406.28
  L 416.56 515.00
  Z"
/>
</svg>
