<?xml version="1.0" encoding="UTF-8" standalone="no"?>
<!DOCTYPE svg PUBLIC "-//W3C//DTD SVG 1.1//EN" "http://www.w3.org/Graphics/SVG/1.1/DTD/svg11.dtd">
<svg xmlns="http://www.w3.org/2000/svg" version="1.1" viewBox="0.00 0.00 923.00 892.00">
<path fill="#007dae" d="
  M 249.32 2.33
  Q 238.95 6.79 230.48 10.72
  Q 139.60 52.92 77.31 131.56
  C 46.29 170.72 21.57 215.55 2.99 262.09
  A 0.16 0.16 0.0 0 1 2.68 262.03
  C 2.70 221.04 1.35 179.97 0.81 141.50
  Q 0.51 120.00 1.63 93.00
  C 2.47 72.88 7.83 53.68 19.79 37.75
  C 34.53 18.12 57.88 6.46 82.06 3.08
  Q 92.80 1.58 104.43 1.12
  C 133.09 -0.01 156.88 1.04 190.01 2.11
  Q 219.77 3.07 249.25 2.01
  A 0.17 0.17 0.0 0 1 249.32 2.33
  Z"
/>
<path fill="#007dae" d="
  M 663.41 21.10
  A 0.15 0.15 0.0 0 0 663.50 20.81
  Q 640.51 10.33 615.85 2.96
  A 0.48 0.48 0.0 0 1 615.75 2.08
  Q 616.10 1.89 616.62 1.89
  Q 717.10 1.84 819.77 1.91
  Q 827.14 1.91 841.27 4.00
  C 871.52 8.45 897.97 23.88 911.01 52.24
  C 918.50 68.53 920.55 85.21 921.36 102.99
  Q 922.51 128.38 921.72 156.00
  C 920.27 207.18 918.90 233.39 920.58 271.98
  A 0.16 0.15 -57.4 0 1 920.28 272.05
  Q 907.79 239.62 889.55 209.21
  Q 826.88 104.74 717.92 56.83
  C 645.75 25.09 561.55 15.22 485.13 31.42
  Q 447.49 39.40 409.29 51.57
  C 389.66 57.83 371.04 65.05 353.91 76.15
  A 0.22 0.22 0.0 0 0 354.06 76.56
  C 393.46 70.36 433.04 66.21 473.48 64.12
  Q 491.65 63.18 506.00 63.65
  Q 547.50 64.99 585.26 79.77
  C 636.09 99.66 680.49 131.33 719.70 171.52
  Q 757.16 209.92 782.74 256.50
  Q 796.37 281.31 807.21 309.31
  C 839.33 392.22 850.16 483.88 842.01 573.01
  Q 840.00 595.04 835.07 628.27
  Q 831.55 652.03 824.60 670.30
  Q 816.85 690.67 804.85 711.61
  Q 775.57 762.67 733.33 807.34
  Q 718.64 822.87 694.02 848.65
  A 0.13 0.13 0.0 0 0 694.18 848.86
  C 740.95 823.49 784.56 793.20 822.31 756.11
  Q 888.27 691.31 919.39 604.38
  A 0.08 0.08 0.0 0 1 919.54 604.41
  Q 919.39 652.92 921.25 706.50
  Q 922.79 751.18 921.32 790.50
  Q 920.78 804.78 919.13 814.68
  C 914.66 841.57 899.56 864.04 875.17 876.60
  C 860.77 884.02 843.53 887.06 826.99 888.21
  Q 811.80 889.27 796.75 889.28
  Q 661.94 889.36 554.22 889.31
  A 0.07 0.07 0.0 0 1 554.20 889.18
  Q 620.28 871.09 675.58 829.31
  Q 723.56 793.07 761.68 745.43
  Q 831.98 657.56 832.61 543.80
  A 0.11 0.11 0.0 0 0 832.39 543.76
  Q 826.90 560.28 820.06 581.56
  C 799.53 645.43 755.36 700.68 698.80 737.06
  Q 648.35 769.50 589.08 781.84
  C 535.58 792.97 480.41 791.03 426.31 787.01
  C 309.21 778.29 188.20 745.97 96.06 669.72
  Q 56.00 636.56 26.18 591.55
  Q 23.58 587.63 11.58 567.26
  Q 4.28 554.85 3.26 552.12
  Q 0.50 544.64 0.86 535.03
  Q 1.15 527.15 2.30 511.26
  Q 2.57 507.62 1.88 500.98
  A 0.14 0.14 0.0 0 1 2.00 500.83
  A 0.07 0.07 0.0 0 1 2.09 500.88
  Q 13.72 539.93 31.74 573.03
  Q 71.32 645.75 141.47 689.93
  A 0.16 0.16 0.0 0 0 141.68 689.70
  C 126.35 669.40 111.95 648.47 99.94 626.55
  Q 70.17 572.20 62.74 512.24
  C 53.20 435.19 75.08 356.94 116.66 291.11
  C 139.00 255.73 166.20 222.64 193.80 192.05
  C 257.97 120.95 333.63 57.28 425.46 26.46
  Q 489.36 5.01 556.76 8.38
  C 593.06 10.20 626.41 15.29 663.41 21.10
  Z
  M 347.07 299.86
  C 362.49 341.21 407.37 375.00 449.30 340.97
  C 464.70 328.47 474.58 309.17 479.53 290.02
  Q 489.00 253.33 480.84 215.66
  C 474.28 185.42 456.72 154.65 424.99 145.94
  Q 416.79 143.68 410.01 144.26
  C 386.42 146.26 367.35 161.05 355.78 181.35
  C 336.20 215.72 333.33 263.05 347.07 299.86
  Z
  M 534.54 382.45
  C 552.65 396.03 577.06 396.10 597.33 386.31
  C 621.94 374.42 641.07 351.86 653.58 327.83
  Q 664.54 306.76 667.47 286.11
  C 671.39 258.53 667.27 221.68 644.21 202.83
  Q 635.31 195.56 626.41 193.59
  Q 608.40 189.61 589.91 193.98
  Q 579.20 196.51 568.39 203.47
  Q 547.78 216.73 534.62 236.09
  Q 531.81 240.24 522.69 256.68
  Q 515.76 269.20 512.97 278.31
  Q 504.92 304.62 508.28 331.50
  C 510.68 350.70 518.94 370.76 534.54 382.45
  Z
  M 259.65 474.15
  C 291.09 481.13 314.21 460.57 324.81 433.05
  Q 336.08 403.78 330.64 372.58
  C 325.18 341.24 309.60 309.56 282.75 291.27
  C 271.80 283.81 259.35 279.78 245.89 281.60
  Q 222.06 284.82 208.74 303.16
  C 191.88 326.38 187.86 359.51 192.60 387.01
  C 198.71 422.47 221.49 465.67 259.65 474.15
  Z
  M 688.77 379.96
  C 646.57 381.63 610.04 418.28 594.02 454.52
  C 583.29 478.81 579.82 509.47 593.57 533.43
  Q 602.33 548.69 617.61 553.93
  C 629.99 558.17 645.25 558.89 658.95 556.39
  Q 671.05 554.19 682.33 547.33
  Q 712.81 528.81 731.44 498.67
  C 754.01 462.15 757.37 387.73 699.76 380.53
  Q 699.63 380.52 694.28 380.06
  Q 691.73 379.84 688.77 379.96
  Z
  M 238.12 627.95
  C 240.00 639.00 246.36 646.07 254.77 653.00
  C 262.79 659.62 271.98 665.27 282.07 667.92
  Q 293.98 671.05 307.76 670.78
  C 325.50 670.44 344.40 667.19 360.00 665.50
  Q 381.78 663.14 402.79 665.41
  C 432.19 668.58 458.06 680.87 480.51 700.05
  C 490.57 708.65 499.19 716.62 509.16 722.09
  C 536.24 736.93 577.19 739.09 595.46 708.21
  Q 597.15 705.36 598.18 701.92
  C 607.34 671.26 600.69 638.80 591.70 608.79
  Q 580.23 570.48 565.55 538.96
  C 554.19 514.59 539.21 490.46 519.82 472.64
  Q 494.95 449.79 461.07 443.13
  C 423.96 435.85 383.73 441.15 351.14 460.91
  C 312.76 484.19 284.13 519.27 258.69 555.94
  C 247.69 571.79 237.60 590.13 236.79 609.94
  Q 236.45 618.13 238.12 627.95
  Z"
/>
<path fill="#007dae" d="
  M 2.11 620.45
  Q 5.79 630.39 10.36 642.16
  Q 28.27 688.33 53.82 729.09
  Q 126.25 844.65 255.44 888.18
  A 0.08 0.08 0.0 0 1 255.41 888.34
  C 224.12 886.90 198.83 888.25 161.38 889.88
  C 135.02 891.02 106.43 891.53 80.02 887.25
  C 60.73 884.12 41.61 877.18 28.03 863.01
  C 14.29 848.69 5.76 828.26 2.90 808.57
  Q 1.65 799.98 1.14 788.75
  Q 0.03 764.14 0.68 739.75
  C 1.74 699.84 3.24 661.30 1.88 620.49
  A 0.12 0.12 0.0 0 1 2.11 620.45
  Z"
/>
</svg>
