<?xml version="1.0" encoding="UTF-8" standalone="no"?>
<!DOCTYPE svg PUBLIC "-//W3C//DTD SVG 1.1//EN" "http://www.w3.org/Graphics/SVG/1.1/DTD/svg11.dtd">
<svg xmlns="http://www.w3.org/2000/svg" version="1.1" viewBox="0.00 0.00 686.00 1000.00">
<path fill="#000000" d="
  M 669.15 782.09
  Q 666.30 782.78 665.67 785.81
  Q 665.34 787.41 665.25 791.20
  Q 665.11 797.36 669.81 800.22
  Q 669.87 808.99 665.79 816.77
  C 661.92 824.16 653.36 823.99 650.25 816.17
  Q 647.10 808.23 649.20 798.46
  C 651.86 786.19 655.95 774.73 658.23 762.77
  C 661.72 744.41 664.20 724.49 666.55 702.12
  Q 666.57 702.00 666.48 701.86
  A 0.08 0.08 0.0 0 0 666.33 701.88
  C 656.82 740.30 624.06 771.18 585.58 779.96
  A 0.40 0.40 0.0 0 0 585.39 780.64
  C 589.21 784.37 595.20 784.13 600.32 784.36
  A 0.22 0.22 0.0 0 1 600.39 784.78
  Q 596.94 786.21 592.16 787.14
  Q 570.88 791.26 552.19 780.69
  A 0.35 0.34 -57.3 0 0 551.75 780.79
  L 456.85 905.68
  A 0.40 0.40 0.0 0 0 456.81 906.10
  C 471.79 935.98 476.54 969.01 461.03 1000.00
  L 437.23 1000.00
  Q 454.24 974.11 448.02 944.49
  Q 442.24 916.98 424.63 895.10
  C 403.35 868.67 378.59 840.85 357.17 812.61
  Q 337.81 787.08 323.82 759.92
  A 0.14 0.14 0.0 0 0 323.55 760.01
  C 329.35 797.20 342.48 832.63 358.44 867.60
  Q 374.49 902.76 386.26 928.73
  C 396.12 950.50 405.83 975.61 412.38 1000.00
  L 391.33 1000.00
  Q 380.51 969.17 369.26 943.73
  Q 339.58 876.59 336.84 870.16
  C 323.56 838.96 311.91 807.61 304.58 774.95
  Q 295.62 735.03 298.20 694.50
  A 0.74 0.73 -79.8 0 0 297.69 693.76
  Q 265.84 683.89 236.03 666.54
  A 0.13 0.13 0.0 0 1 235.98 666.38
  L 236.05 666.25
  A 0.15 0.15 0.0 0 1 236.25 666.17
  Q 264.38 676.68 270.32 678.89
  C 284.12 684.04 298.83 687.64 313.52 686.80
  Q 322.83 686.27 334.57 681.60
  C 375.58 665.31 417.60 646.62 444.30 610.08
  Q 449.50 602.96 451.49 598.52
  C 457.80 584.46 445.43 570.37 437.41 559.09
  C 435.40 556.26 437.83 548.20 438.84 545.12
  C 447.30 519.47 456.56 495.23 458.75 470.28
  C 460.26 453.08 454.52 439.80 443.13 427.35
  Q 423.41 405.78 418.76 400.47
  A 0.22 0.20 45.2 0 1 418.75 400.20
  L 418.87 400.05
  A 0.12 0.12 0.0 0 1 419.05 400.05
  C 436.46 419.78 462.65 422.80 486.73 414.14
  Q 497.73 410.19 515.34 397.47
  C 578.48 351.86 626.42 288.79 654.05 216.08
  Q 658.89 203.37 660.80 193.59
  C 664.54 174.47 668.86 136.21 640.87 131.72
  C 621.29 128.58 600.91 135.97 583.59 145.11
  Q 579.68 147.16 554.78 160.20
  Q 548.52 163.47 543.05 166.08
  Q 504.43 184.75 468.02 205.51
  Q 418.33 233.85 378.18 259.72
  C 354.61 274.90 336.39 298.37 333.13 326.74
  A 1.26 1.25 25.0 0 0 333.53 327.82
  Q 337.88 331.87 342.38 335.21
  C 356.11 345.38 363.77 350.87 368.92 355.69
  A 0.23 0.22 -9.8 0 1 368.66 356.05
  L 368.25 355.85
  L 332.67 334.40
  A 0.66 0.66 0.0 0 0 331.73 334.71
  C 323.33 354.43 309.15 371.51 289.54 380.70
  A 0.21 0.21 0.0 0 1 289.26 380.43
  Q 320.37 305.71 334.50 225.25
  Q 348.52 145.48 347.69 61.76
  C 347.48 39.60 331.39 17.97 307.12 27.89
  Q 297.95 31.64 292.03 38.86
  Q 280.98 48.17 269.07 60.82
  Q 226.03 106.55 196.62 157.88
  Q 144.13 249.46 129.54 353.47
  C 127.95 364.82 127.03 377.42 124.84 388.06
  Q 122.37 400.07 117.55 413.82
  C 108.70 439.05 99.50 462.09 97.73 488.25
  Q 93.67 548.02 118.66 602.67
  A 0.94 0.93 -40.3 0 1 118.58 603.59
  Q 88.25 648.95 68.88 697.14
  Q 42.49 762.81 31.38 834.13
  Q 18.55 916.55 22.40 1000.00
  L 1.28 1000.00
  Q -3.12 911.51 9.38 826.24
  Q 14.42 791.85 25.52 750.76
  Q 45.10 678.32 85.67 614.86
  Q 90.91 606.66 91.94 603.64
  C 95.40 593.47 94.56 582.45 92.81 571.73
  Q 91.58 564.25 88.93 548.31
  Q 86.00 530.67 85.93 512.06
  Q 85.89 500.50 88.99 475.79
  C 99.31 393.71 110.70 312.19 137.60 234.33
  C 163.54 159.27 207.08 90.17 263.97 34.68
  Q 272.37 26.49 278.89 21.24
  C 291.65 10.99 306.97 -0.78 323.90 0.32
  C 342.20 1.51 354.31 14.13 361.23 30.53
  C 367.75 46.02 369.74 62.30 370.26 79.01
  C 371.34 113.74 367.85 149.16 362.61 183.39
  Q 357.51 216.76 352.14 250.13
  A 0.42 0.41 78.6 0 0 352.77 250.55
  Q 416.24 210.31 478.88 175.66
  Q 524.53 150.40 565.64 131.92
  Q 593.71 119.30 603.34 115.88
  C 626.02 107.84 657.25 108.02 672.93 129.76
  C 690.85 154.60 687.48 187.50 677.65 214.93
  C 656.55 273.77 622.56 328.59 578.06 373.05
  Q 532.32 418.76 473.25 444.85
  A 0.82 0.82 0.0 0 0 472.76 445.55
  Q 471.61 465.85 466.01 486.52
  Q 462.43 499.76 458.37 516.33
  Q 453.63 535.70 453.10 550.54
  Q 452.94 555.30 456.31 562.01
  Q 462.69 574.71 464.11 578.64
  C 465.05 581.25 465.56 584.02 465.18 587.18
  C 463.37 602.28 455.88 615.08 445.31 625.83
  Q 432.73 638.63 416.34 648.86
  C 389.79 665.43 360.43 677.83 330.52 688.81
  A 0.54 0.53 -10.3 0 0 330.17 689.31
  C 330.11 729.75 348.71 765.44 372.27 797.49
  Q 382.49 811.38 392.16 822.60
  Q 424.68 860.34 434.61 871.82
  A 0.22 0.22 0.0 0 0 434.94 871.83
  L 536.28 761.62
  A 1.35 1.34 58.8 0 0 536.58 760.37
  C 531.27 740.61 535.08 720.67 546.24 703.48
  Q 550.26 697.28 555.64 693.15
  Q 557.10 692.03 557.71 691.91
  A 0.23 0.23 0.0 0 1 557.95 692.27
  Q 555.71 695.48 556.39 699.72
  A 0.36 0.36 0.0 0 0 557.00 699.91
  C 570.46 685.81 587.63 676.58 607.56 677.15
  A 0.35 0.34 27.3 0 1 607.76 677.77
  Q 604.32 680.34 604.53 684.88
  A 1.03 1.03 0.0 0 0 605.78 685.84
  Q 618.80 682.92 630.62 675.62
  C 645.30 666.55 653.25 653.13 659.97 637.54
  A 0.22 0.22 0.0 0 1 660.38 637.54
  Q 670.99 663.65 668.28 691.03
  A 7.15 6.83 -48.1 0 0 668.34 692.93
  Q 670.31 704.33 669.33 728.00
  Q 668.61 745.30 668.22 758.00
  Q 667.84 770.34 669.15 782.09
  Z"
/>
<path fill="#fce4f1" d="
  M 368.25 355.85
  L 367.82 356.27
  A 0.59 0.58 41.9 0 0 367.87 357.14
  L 374.91 362.87
  A 0.39 0.39 0.0 0 0 375.51 362.73
  C 392.34 326.56 418.02 296.36 446.68 268.67
  C 475.73 240.60 493.77 224.28 517.05 199.05
  Q 531.45 183.45 543.05 166.08
  Q 548.52 163.47 554.78 160.20
  Q 579.68 147.16 583.59 145.11
  C 600.91 135.97 621.29 128.58 640.87 131.72
  C 668.86 136.21 664.54 174.47 660.80 193.59
  Q 658.89 203.37 654.05 216.08
  C 626.42 288.79 578.48 351.86 515.34 397.47
  Q 497.73 410.19 486.73 414.14
  C 462.65 422.80 436.46 419.78 419.05 400.05
  A 0.12 0.12 0.0 0 0 418.87 400.05
  L 418.75 400.20
  A 0.22 0.20 45.2 0 0 418.76 400.47
  Q 423.41 405.78 443.13 427.35
  C 454.52 439.80 460.26 453.08 458.75 470.28
  C 456.56 495.23 447.30 519.47 438.84 545.12
  C 437.83 548.20 435.40 556.26 437.41 559.09
  C 445.43 570.37 457.80 584.46 451.49 598.52
  Q 449.50 602.96 444.30 610.08
  C 417.60 646.62 375.58 665.31 334.57 681.60
  Q 322.83 686.27 313.52 686.80
  C 298.83 687.64 284.12 684.04 270.32 678.89
  Q 264.38 676.68 236.25 666.17
  A 0.15 0.15 0.0 0 0 236.05 666.25
  L 235.98 666.38
  A 0.13 0.13 0.0 0 0 236.03 666.54
  Q 265.84 683.89 297.69 693.76
  A 0.74 0.73 -79.8 0 1 298.20 694.50
  Q 295.62 735.03 304.58 774.95
  C 311.91 807.61 323.56 838.96 336.84 870.16
  Q 339.58 876.59 369.26 943.73
  Q 380.51 969.17 391.33 1000.00
  L 188.15 1000.00
  C 182.44 991.26 179.65 983.16 176.54 972.67
  Q 171.39 955.28 165.95 924.86
  Q 162.68 906.57 159.02 888.05
  L 167.26 802.72
  L 167.30 801.58
  Q 167.97 797.66 167.08 799.89
  L 166.41 801.52
  Q 155.04 840.29 149.40 880.32
  Q 141.68 935.18 142.51 990.36
  C 118.88 995.98 97.65 995.33 72.10 993.88
  A 0.49 0.49 0.0 0 1 71.64 993.37
  Q 73.64 948.55 80.26 895.24
  Q 92.24 798.73 118.89 712.62
  Q 133.28 666.09 152.08 623.45
  A 0.66 0.65 -77.0 0 1 152.71 623.05
  L 173.61 624.04
  A 0.49 0.48 -14.1 0 0 174.05 623.31
  Q 151.87 585.45 144.97 542.31
  Q 141.40 519.97 142.52 500.23
  Q 143.45 483.84 144.57 476.05
  C 150.06 437.79 172.89 404.46 175.94 364.96
  C 176.46 358.18 175.71 350.36 176.09 342.96
  C 180.01 266.52 206.21 193.27 241.84 125.79
  Q 265.04 81.84 292.03 38.86
  Q 297.95 31.64 307.12 27.89
  C 331.39 17.97 347.48 39.60 347.69 61.76
  Q 348.52 145.48 334.50 225.25
  Q 320.37 305.71 289.26 380.43
  A 0.21 0.21 0.0 0 0 289.54 380.70
  C 309.15 371.51 323.33 354.43 331.73 334.71
  A 0.66 0.66 0.0 0 1 332.67 334.40
  L 368.25 355.85
  Z"
/>
<path fill="#f9cce4" d="
  M 292.03 38.86
  Q 265.04 81.84 241.84 125.79
  C 206.21 193.27 180.01 266.52 176.09 342.96
  C 175.71 350.36 176.46 358.18 175.94 364.96
  C 172.89 404.46 150.06 437.79 144.57 476.05
  Q 143.45 483.84 142.52 500.23
  Q 141.40 519.97 144.97 542.31
  Q 151.87 585.45 174.05 623.31
  A 0.49 0.48 -14.1 0 1 173.61 624.04
  L 152.71 623.05
  A 0.66 0.65 -77.0 0 0 152.08 623.45
  Q 133.28 666.09 118.89 712.62
  Q 92.24 798.73 80.26 895.24
  Q 73.64 948.55 71.64 993.37
  A 0.49 0.49 0.0 0 0 72.10 993.88
  C 97.65 995.33 118.88 995.98 142.51 990.36
  L 142.69 1000.00
  L 22.40 1000.00
  Q 18.55 916.55 31.38 834.13
  Q 42.49 762.81 68.88 697.14
  Q 88.25 648.95 118.58 603.59
  A 0.94 0.93 -40.3 0 0 118.66 602.67
  Q 93.67 548.02 97.73 488.25
  C 99.50 462.09 108.70 439.05 117.55 413.82
  Q 122.37 400.07 124.84 388.06
  C 127.03 377.42 127.95 364.82 129.54 353.47
  Q 144.13 249.46 196.62 157.88
  Q 226.03 106.55 269.07 60.82
  Q 280.98 48.17 292.03 38.86
  Z"
/>
<path fill="#f9cce4" d="
  M 543.05 166.08
  Q 531.45 183.45 517.05 199.05
  C 493.77 224.28 475.73 240.60 446.68 268.67
  C 418.02 296.36 392.34 326.56 375.51 362.73
  A 0.39 0.39 0.0 0 1 374.91 362.87
  L 367.87 357.14
  A 0.59 0.58 41.9 0 1 367.82 356.27
  L 368.25 355.85
  L 368.66 356.05
  A 0.23 0.22 -9.8 0 0 368.92 355.69
  C 363.77 350.87 356.11 345.38 342.38 335.21
  Q 337.88 331.87 333.53 327.82
  A 1.26 1.25 25.0 0 1 333.13 326.74
  C 336.39 298.37 354.61 274.90 378.18 259.72
  Q 418.33 233.85 468.02 205.51
  Q 504.43 184.75 543.05 166.08
  Z"
/>
<path fill="#000000" d="
  M 194.12 513.59
  C 191.16 516.03 186.83 515.01 185.52 511.58
  Q 184.97 510.13 185.76 506.43
  C 189.40 489.35 199.03 473.79 216.32 468.63
  C 234.15 463.31 253.61 471.23 265.86 484.90
  Q 279.87 500.52 278.72 521.73
  C 278.64 523.21 278.22 528.56 276.31 530.08
  C 273.33 532.45 269.52 531.70 267.86 528.30
  Q 267.31 527.16 267.78 523.68
  Q 270.16 506.16 258.43 492.52
  C 242.98 474.56 214.32 470.31 201.41 494.20
  Q 197.70 501.07 196.16 509.04
  Q 195.51 512.44 194.12 513.59
  Z"
/>
<path fill="#000000" d="
  M 431.35 554.38
  A 0.34 0.34 0.0 0 1 430.69 554.29
  C 429.89 544.91 429.88 537.16 425.09 529.96
  C 423.67 527.82 420.52 524.36 417.75 525.67
  C 413.96 527.47 411.28 531.90 409.62 535.90
  Q 406.94 542.36 404.21 549.53
  A 4.62 4.61 19.9 0 1 398.39 552.25
  L 398.33 552.24
  A 4.23 4.23 0.0 0 1 395.69 546.92
  C 398.47 538.45 408.12 512.04 421.15 517.59
  Q 426.58 519.91 429.86 528.26
  Q 433.31 537.03 432.46 546.61
  C 432.27 548.81 432.31 551.95 431.35 554.38
  Z"
/>
<path fill="#000000" d="
  M 324.18 533.61
  A 0.22 0.22 0.0 0 1 324.35 533.22
  Q 354.18 536.92 383.47 544.03
  A 0.36 0.36 0.0 0 1 383.57 544.69
  L 357.26 559.88
  A 0.77 0.76 49.3 0 1 356.40 559.81
  L 324.18 533.61
  Z"
/>
<path fill="#000000" d="
  M 243.21 605.23
  A 0.18 0.18 0.0 0 1 243.30 604.89
  Q 265.32 607.63 280.99 608.97
  C 303.20 610.85 324.25 609.35 343.63 599.66
  A 0.61 0.60 -29.4 0 1 344.41 599.87
  C 349.91 608.36 360.44 614.81 369.80 617.93
  A 0.27 0.27 0.0 0 1 369.69 618.46
  Q 354.19 616.81 341.83 607.77
  A 0.96 0.94 -36.3 0 0 340.93 607.64
  C 309.24 619.63 273.92 618.52 243.21 605.23
  Z"
/>
<path fill="#fce4f1" d="
  M 437.23 1000.00
  L 412.38 1000.00
  C 405.83 975.61 396.12 950.50 386.26 928.73
  Q 374.49 902.76 358.44 867.60
  C 342.48 832.63 329.35 797.20 323.55 760.01
  A 0.14 0.14 0.0 0 1 323.82 759.92
  Q 337.81 787.08 357.17 812.61
  C 378.59 840.85 403.35 868.67 424.63 895.10
  Q 442.24 916.98 448.02 944.49
  Q 454.24 974.11 437.23 1000.00
  Z"
/>
<path fill="#c5c5c5" d="
  M 544.97 782.30
  Q 535.68 780.57 534.29 770.49
  L 538.18 766.17
  A 0.41 0.41 0.0 0 1 538.85 766.26
  Q 542.18 772.78 547.90 777.45
  A 0.56 0.56 0.0 0 1 548.00 778.21
  L 544.97 782.30
  Z"
/>
<path fill="#7c7c7d" d="
  M 534.29 770.49
  Q 535.68 780.57 544.97 782.30
  L 541.90 786.43
  C 540.14 785.35 537.91 784.52 536.45 783.40
  Q 532.28 780.20 530.54 774.45
  L 534.29 770.49
  Z"
/>
<path fill="#c5c5c5" d="
  M 530.54 774.45
  Q 532.28 780.20 536.45 783.40
  C 537.91 784.52 540.14 785.35 541.90 786.43
  L 536.55 793.48
  Q 529.58 791.95 526.86 787.13
  Q 526.03 785.67 524.66 780.91
  L 530.54 774.45
  Z"
/>
<path fill="#7c7c7d" d="
  M 524.66 780.91
  Q 526.03 785.67 526.86 787.13
  Q 529.58 791.95 536.55 793.48
  L 535.05 795.39
  Q 527.97 793.48 524.90 787.67
  Q 523.73 785.45 522.78 782.89
  L 524.66 780.91
  Z"
/>
<path fill="#7c7c7d" d="
  M 669.15 782.09
  L 669.40 784.54
  L 669.01 784.62
  A 0.77 0.76 8.5 0 0 668.49 785.00
  Q 664.72 791.89 669.83 796.94
  Q 670.13 797.99 669.81 800.22
  Q 665.11 797.36 665.25 791.20
  Q 665.34 787.41 665.67 785.81
  Q 666.30 782.78 669.15 782.09
  Z"
/>
<path fill="#c5c5c5" d="
  M 522.78 782.89
  Q 523.73 785.45 524.90 787.67
  Q 527.97 793.48 535.05 795.39
  L 529.25 803.00
  Q 519.25 799.46 517.47 788.69
  L 522.78 782.89
  Z"
/>
<path fill="#c5c5c5" d="
  M 669.40 784.54
  L 669.83 796.94
  Q 664.72 791.89 668.49 785.00
  A 0.77 0.76 8.5 0 1 669.01 784.62
  L 669.40 784.54
  Z"
/>
<path fill="#7c7c7d" d="
  M 517.47 788.69
  Q 519.25 799.46 529.25 803.00
  L 527.77 805.01
  Q 517.59 800.57 515.66 790.59
  L 517.47 788.69
  Z"
/>
<path fill="#a07764" d="
  M 515.66 790.59
  Q 517.59 800.57 527.77 805.01
  L 454.87 900.98
  A 0.43 0.43 0.0 0 1 454.15 900.92
  Q 446.92 887.90 437.75 876.03
  A 0.57 0.57 0.0 0 1 437.78 875.29
  L 515.66 790.59
  Z"
/>
<path fill="#000000" d="
  M 167.30 801.58
  Q 167.32 800.41 167.08 799.89
  Q 167.97 797.66 167.30 801.58
  Z"
/>
<path fill="#000000" d="
  M 166.41 801.52
  Q 166.59 802.92 167.26 802.72
  L 159.02 888.05
  Q 153.59 944.12 153.33 1000.00
  L 142.69 1000.00
  L 142.51 990.36
  Q 141.68 935.18 149.40 880.32
  Q 155.04 840.29 166.41 801.52
  Z"
/>
<path fill="#f9cce4" d="
  M 188.15 1000.00
  L 153.33 1000.00
  Q 153.59 944.12 159.02 888.05
  Q 162.68 906.57 165.95 924.86
  Q 171.39 955.28 176.54 972.67
  C 179.65 983.16 182.44 991.26 188.15 1000.00
  Z"
/>
</svg>
