<?xml version="1.0" encoding="UTF-8" standalone="no"?>
<!DOCTYPE svg PUBLIC "-//W3C//DTD SVG 1.1//EN" "http://www.w3.org/Graphics/SVG/1.1/DTD/svg11.dtd">
<svg xmlns="http://www.w3.org/2000/svg" version="1.1" viewBox="0.00 0.00 698.00 470.00">
<path fill="#000000" d="
  M 698.00 271.91
  L 698.00 294.38
  Q 696.76 308.25 694.77 319.25
  Q 689.66 347.42 675.90 372.92
  Q 665.23 392.71 649.42 408.38
  Q 621.15 436.42 581.59 443.08
  Q 569.82 445.06 558.13 446.85
  Q 551.52 447.86 548.13 447.97
  C 543.56 448.13 539.44 449.21 534.77 449.28
  Q 521.09 449.47 507.93 449.29
  Q 503.05 449.23 499.47 448.55
  C 495.67 447.83 492.20 447.94 488.20 447.20
  Q 477.02 445.12 473.85 444.42
  Q 410.17 430.26 378.52 373.98
  Q 370.15 359.09 363.90 340.37
  Q 359.90 328.40 355.87 308.36
  C 350.69 282.56 349.91 254.89 351.60 228.32
  C 352.02 221.64 352.86 216.61 352.95 208.84
  C 353.15 190.52 343.69 178.66 326.52 173.61
  Q 318.40 171.22 309.49 171.29
  Q 301.50 171.35 293.71 172.99
  C 287.55 174.28 280.91 176.40 276.88 180.89
  Q 270.92 187.53 273.33 196.27
  C 275.81 205.29 281.23 213.09 287.94 220.58
  Q 294.19 227.56 299.23 232.25
  C 309.60 241.90 317.29 255.04 322.44 268.05
  Q 329.79 286.64 332.74 305.24
  Q 336.06 326.11 335.36 344.76
  Q 334.85 358.36 330.91 370.19
  C 327.57 380.23 321.88 391.90 315.33 400.78
  Q 299.20 422.64 276.47 437.29
  C 271.30 440.62 264.33 443.93 259.45 446.31
  Q 254.78 448.59 252.41 449.50
  Q 218.48 462.51 181.96 464.04
  C 171.98 464.45 160.02 463.55 151.32 462.18
  C 139.30 460.28 126.15 456.61 115.91 452.01
  Q 108.61 448.73 97.75 441.62
  Q 78.94 429.30 58.17 417.66
  Q 50.05 413.11 38.65 407.33
  C 27.41 401.63 14.66 396.09 0.99 392.44
  A 1.15 1.14 13.1 0 1 0.16 391.12
  C 2.31 379.79 6.54 367.83 14.53 359.78
  Q 24.72 349.51 39.70 348.40
  C 44.34 348.06 48.69 349.19 53.45 349.91
  A 0.52 0.52 0.0 0 0 53.99 349.15
  C 51.60 344.62 48.40 343.24 43.94 341.98
  A 10.00 9.64 -34.2 0 0 42.02 341.65
  C 38.82 341.42 32.69 341.15 28.40 342.21
  Q 26.12 342.77 21.04 343.46
  A 0.36 0.35 -89.4 0 1 20.64 343.05
  Q 23.51 325.92 39.56 320.89
  Q 47.94 318.26 57.43 319.85
  Q 70.33 322.01 82.18 326.85
  C 99.44 333.90 115.31 340.35 132.98 340.33
  C 151.58 340.30 168.66 329.37 176.58 312.61
  C 184.70 295.43 176.87 275.57 164.41 262.57
  C 159.26 257.20 153.80 252.84 147.16 247.76
  Q 132.44 236.52 124.77 229.26
  Q 114.34 219.39 105.42 207.84
  C 96.58 196.40 89.47 184.04 85.93 169.67
  C 84.64 164.42 84.81 158.94 83.89 154.10
  C 83.36 151.31 83.41 146.21 83.58 144.25
  C 85.71 120.11 94.28 97.96 106.68 77.19
  Q 109.49 72.48 122.46 57.70
  Q 130.43 48.61 141.38 39.62
  C 156.48 27.21 175.04 17.75 194.78 15.83
  Q 215.64 13.81 234.24 23.52
  A 0.66 0.66 0.0 0 0 235.15 22.68
  C 232.25 15.73 223.83 11.59 217.22 10.11
  Q 213.16 9.21 209.98 8.13
  A 0.42 0.42 0.0 0 1 210.08 7.32
  Q 218.22 6.68 233.21 6.00
  C 262.63 4.66 293.76 10.96 319.45 25.12
  Q 350.90 42.47 371.11 73.19
  C 374.71 78.67 376.99 83.53 379.61 89.12
  A 0.25 0.25 0.0 0 0 380.08 89.06
  Q 380.71 85.03 379.63 80.86
  C 376.46 68.57 370.29 58.23 362.48 48.85
  A 0.25 0.25 0.0 0 1 362.79 48.46
  Q 365.23 49.65 367.35 51.41
  C 376.43 58.94 384.65 68.33 390.03 78.69
  Q 397.21 92.49 400.29 108.18
  C 401.35 113.56 401.12 117.41 401.43 124.59
  A 0.88 0.87 72.6 0 0 402.77 125.29
  Q 414.59 117.89 424.98 113.26
  C 444.49 104.57 464.10 98.25 485.74 95.25
  Q 493.50 94.17 499.00 93.80
  Q 537.64 91.22 571.02 103.26
  Q 602.98 114.77 631.15 138.63
  Q 680.54 180.44 694.13 243.68
  Q 696.15 253.08 698.00 271.91
  Z"
/>
<path fill="#c05d00" d="
  M 671.38 245.21
  Q 668.72 245.78 667.97 240.10
  A 3.57 3.36 -62.9 0 0 667.69 239.13
  Q 661.86 226.09 657.50 218.24
  Q 651.18 206.84 647.30 196.71
  Q 644.93 190.50 638.75 188.81
  A 0.41 0.40 0.5 0 0 638.25 189.30
  C 639.42 193.86 639.76 199.83 639.54 204.97
  Q 639.20 213.21 639.75 222.13
  Q 640.13 228.40 641.37 232.40
  C 645.09 244.42 652.14 256.17 651.95 268.02
  A 0.36 0.36 0.0 0 1 651.27 268.18
  Q 647.79 261.54 642.20 255.53
  C 633.77 246.47 625.33 238.80 625.55 225.81
  A 0.55 0.54 -87.8 0 0 625.04 225.25
  Q 624.64 225.23 624.28 225.54
  C 618.47 230.54 617.16 242.07 617.99 249.14
  Q 620.36 269.40 631.33 286.95
  A 0.49 0.49 0.0 0 1 631.22 287.60
  L 631.20 287.61
  A 0.50 0.49 49.9 0 1 630.53 287.55
  Q 622.33 278.64 614.70 271.06
  Q 612.22 268.61 609.07 266.63
  A 0.45 0.45 0.0 0 0 608.44 267.25
  C 618.65 284.12 614.30 305.41 604.87 321.63
  Q 604.21 322.75 603.40 323.39
  A 0.40 0.39 83.6 0 1 602.80 322.91
  Q 604.17 320.02 603.83 316.74
  C 603.05 309.20 599.09 301.35 596.74 294.73
  A 0.23 0.23 0.0 0 0 596.30 294.80
  C 595.77 304.83 590.86 313.55 586.39 323.62
  Q 582.71 331.93 583.49 341.32
  A 0.50 0.50 0.0 0 1 582.56 341.62
  C 580.62 338.42 579.07 335.51 576.92 333.39
  C 569.77 326.38 559.69 322.37 550.50 319.99
  Q 542.79 317.99 520.32 313.42
  Q 509.41 311.20 500.37 306.77
  A 0.55 0.54 9.2 0 0 499.59 307.33
  C 500.83 316.88 509.49 325.76 517.12 331.13
  Q 527.01 338.11 536.88 345.11
  Q 541.20 348.18 547.39 355.75
  A 1.86 1.84 25.8 0 1 547.80 356.91
  L 547.80 357.56
  A 0.42 0.42 0.0 0 1 547.06 357.84
  Q 546.07 356.73 545.01 356.22
  Q 539.56 353.58 533.01 352.19
  Q 532.85 352.16 506.51 349.60
  Q 504.60 349.41 500.02 348.98
  Q 490.30 348.06 482.11 342.00
  A 1.26 1.26 0.0 0 0 480.96 341.82
  Q 479.86 342.20 479.25 343.32
  A 0.91 0.91 0.0 0 0 479.35 344.33
  Q 489.25 356.21 502.03 362.68
  Q 502.71 363.03 502.92 363.54
  A 0.58 0.58 0.0 0 1 502.40 364.35
  Q 498.43 364.42 494.55 363.73
  Q 472.60 359.85 461.14 341.24
  Q 459.08 337.88 456.51 329.58
  A 1.86 1.60 40.6 0 1 456.47 329.32
  L 456.06 322.42
  A 1.00 1.00 0.0 0 0 454.50 321.66
  Q 451.90 323.44 451.60 325.66
  A 1.42 1.41 73.4 0 1 451.13 326.54
  Q 450.51 327.09 450.01 328.99
  Q 447.77 337.53 450.02 345.48
  Q 452.49 354.15 457.76 360.54
  A 0.32 0.32 0.0 0 1 457.73 360.97
  L 457.70 361.00
  A 0.28 0.28 0.0 0 1 457.31 360.99
  C 454.42 358.12 450.19 354.50 447.30 350.62
  Q 441.61 342.98 437.39 335.85
  Q 428.06 320.06 426.11 301.62
  C 425.85 299.07 426.43 296.47 425.88 294.07
  A 0.74 0.73 -12.2 0 0 425.02 293.52
  Q 423.70 293.79 422.87 295.16
  C 412.02 312.99 420.88 334.06 433.65 348.11
  A 0.49 0.49 0.0 0 1 433.17 348.92
  C 422.54 346.27 415.74 339.59 411.28 329.88
  C 405.04 316.28 403.46 299.74 399.60 285.32
  C 396.85 275.03 391.18 263.56 380.25 261.42
  A 0.52 0.52 0.0 0 0 379.74 262.24
  C 383.30 266.87 385.65 272.09 386.40 278.13
  Q 388.33 293.71 386.68 309.43
  C 386.03 315.56 386.25 320.76 386.07 326.92
  A 13.28 13.24 40.0 0 0 386.34 329.95
  Q 387.37 334.85 387.40 339.86
  Q 383.98 330.19 383.09 327.18
  Q 379.41 314.81 374.12 291.11
  Q 369.67 271.14 369.27 250.99
  Q 369.13 244.03 369.01 218.00
  Q 368.97 211.40 367.75 198.76
  Q 366.93 190.32 361.46 179.48
  C 362.59 174.30 361.67 170.25 361.09 165.16
  C 358.76 144.75 349.69 117.08 324.37 116.76
  A 1.38 1.38 0.0 0 0 322.99 118.37
  Q 323.82 123.18 326.20 127.45
  Q 332.06 137.95 333.64 141.33
  A 0.45 0.45 0.0 0 1 332.92 141.84
  Q 317.12 126.86 295.62 122.12
  Q 278.68 118.38 262.77 120.45
  Q 260.92 120.69 257.92 121.48
  C 246.95 124.36 238.40 129.68 231.84 139.12
  A 1.08 1.07 2.8 0 0 233.25 140.67
  Q 240.88 136.42 249.28 136.49
  A 1.20 1.19 32.4 0 1 249.79 138.76
  C 230.86 147.76 221.53 167.94 222.25 188.27
  Q 222.70 201.11 230.30 211.31
  A 0.69 0.69 0.0 0 0 231.51 211.09
  Q 234.19 201.65 238.98 192.81
  A 0.52 0.52 0.0 0 1 239.96 193.06
  Q 240.03 201.19 244.50 208.29
  Q 256.15 226.77 277.70 229.80
  Q 293.69 249.46 302.56 274.72
  Q 302.34 274.88 302.22 275.09
  A 0.63 0.61 15.5 0 1 301.69 275.38
  C 293.68 275.34 292.46 284.10 291.95 290.25
  Q 290.58 306.87 290.32 313.50
  Q 290.07 320.01 288.45 325.92
  Q 284.08 341.90 279.62 352.53
  C 275.03 363.46 267.86 374.46 256.49 378.97
  A 0.73 0.73 0.0 0 1 255.55 378.00
  C 259.32 369.45 263.95 359.59 261.71 350.38
  A 0.68 0.68 0.0 0 0 260.46 350.21
  Q 252.29 364.92 240.07 376.62
  A 6.04 5.78 85.8 0 0 239.27 377.59
  Q 238.27 379.14 236.80 380.80
  Q 235.37 382.40 235.07 380.69
  L 236.73 377.74
  A 0.36 0.36 0.0 0 0 236.19 377.28
  C 224.92 386.59 210.24 389.94 196.09 391.84
  A 0.51 0.51 0.0 0 1 195.63 391.01
  C 206.87 377.68 212.16 361.10 214.62 343.42
  Q 216.22 331.94 216.43 330.76
  A 0.48 0.48 0.0 0 0 215.63 330.33
  Q 210.66 335.24 204.62 337.36
  Q 190.21 342.42 175.23 341.53
  A 0.74 0.74 0.0 0 1 174.73 340.29
  Q 180.26 334.38 180.82 333.57
  Q 190.39 319.84 193.87 308.30
  Q 197.43 296.49 196.50 282.97
  C 195.48 268.06 187.19 255.01 175.22 246.29
  Q 166.50 239.95 156.02 232.07
  C 135.45 216.61 118.38 197.49 107.29 174.50
  C 99.77 158.90 96.74 139.08 102.22 122.24
  Q 109.66 99.42 121.57 79.80
  Q 127.36 70.27 136.07 60.75
  C 148.57 47.08 163.25 38.32 181.09 33.45
  C 186.27 32.04 192.79 31.60 197.87 30.98
  Q 200.96 30.60 204.65 30.71
  Q 232.31 31.56 257.21 43.87
  A 0.79 0.79 0.0 0 0 258.19 43.63
  C 261.66 38.89 257.32 29.87 254.27 25.72
  Q 250.81 21.02 248.45 18.11
  A 0.51 0.51 0.0 0 1 248.92 17.28
  C 253.89 18.00 258.96 17.96 264.01 18.77
  Q 284.88 22.09 300.06 28.27
  Q 338.12 43.77 359.32 79.27
  Q 368.70 94.98 374.27 113.74
  Q 376.18 120.17 376.51 125.90
  A 0.52 0.52 0.0 0 0 377.18 126.36
  C 379.15 125.74 380.94 122.09 381.69 120.20
  Q 384.78 112.54 387.37 105.72
  A 0.61 0.61 0.0 0 1 388.53 105.78
  Q 391.09 115.64 393.01 124.98
  C 394.09 130.25 394.01 136.33 394.54 140.26
  C 394.82 142.33 394.40 143.90 394.09 146.12
  A 0.58 0.58 0.0 0 0 394.92 146.72
  Q 407.65 140.59 424.05 134.05
  C 445.37 125.55 466.92 119.58 487.78 116.08
  C 527.01 109.50 569.12 115.22 602.45 138.16
  Q 616.72 147.98 627.33 159.67
  C 648.91 183.44 663.54 214.09 671.38 245.21
  Z"
/>
<path fill="#923d00" d="
  M 361.46 179.48
  Q 349.02 164.34 331.52 155.25
  C 321.45 150.02 310.66 148.49 299.60 149.31
  Q 280.52 150.71 267.01 165.21
  C 259.58 173.19 253.88 184.96 254.61 195.95
  Q 255.03 202.30 259.59 208.17
  Q 264.88 214.96 274.55 225.45
  Q 275.31 226.28 277.70 229.80
  Q 256.15 226.77 244.50 208.29
  Q 240.03 201.19 239.96 193.06
  A 0.52 0.52 0.0 0 0 238.98 192.81
  Q 234.19 201.65 231.51 211.09
  A 0.69 0.69 0.0 0 1 230.30 211.31
  Q 222.70 201.11 222.25 188.27
  C 221.53 167.94 230.86 147.76 249.79 138.76
  A 1.20 1.19 32.4 0 0 249.28 136.49
  Q 240.88 136.42 233.25 140.67
  A 1.08 1.07 2.8 0 1 231.84 139.12
  C 238.40 129.68 246.95 124.36 257.92 121.48
  Q 260.92 120.69 262.77 120.45
  Q 278.68 118.38 295.62 122.12
  Q 317.12 126.86 332.92 141.84
  A 0.45 0.45 0.0 0 0 333.64 141.33
  Q 332.06 137.95 326.20 127.45
  Q 323.82 123.18 322.99 118.37
  A 1.38 1.38 0.0 0 1 324.37 116.76
  C 349.69 117.08 358.76 144.75 361.09 165.16
  C 361.67 170.25 362.59 174.30 361.46 179.48
  Z"
/>
<path fill="#923d00" d="
  M 671.38 245.21
  Q 672.91 250.41 673.35 252.70
  Q 683.05 303.27 662.31 349.41
  Q 646.60 384.38 616.44 406.20
  Q 589.01 426.05 555.64 431.32
  C 548.47 432.46 538.85 433.96 529.84 434.07
  Q 515.33 434.26 510.13 433.62
  Q 500.86 432.48 494.04 431.62
  Q 487.32 430.78 473.83 427.12
  Q 457.70 422.75 441.54 412.69
  C 415.06 396.20 397.01 369.09 387.40 339.86
  Q 387.37 334.85 386.34 329.95
  A 13.28 13.24 40.0 0 1 386.07 326.92
  C 386.25 320.76 386.03 315.56 386.68 309.43
  Q 388.33 293.71 386.40 278.13
  C 385.65 272.09 383.30 266.87 379.74 262.24
  A 0.52 0.52 0.0 0 1 380.25 261.42
  C 391.18 263.56 396.85 275.03 399.60 285.32
  C 403.46 299.74 405.04 316.28 411.28 329.88
  C 415.74 339.59 422.54 346.27 433.17 348.92
  A 0.49 0.49 0.0 0 0 433.65 348.11
  C 420.88 334.06 412.02 312.99 422.87 295.16
  Q 423.70 293.79 425.02 293.52
  A 0.74 0.73 -12.2 0 1 425.88 294.07
  C 426.43 296.47 425.85 299.07 426.11 301.62
  Q 428.06 320.06 437.39 335.85
  Q 441.61 342.98 447.30 350.62
  C 450.19 354.50 454.42 358.12 457.31 360.99
  A 0.28 0.28 0.0 0 0 457.70 361.00
  L 457.73 360.97
  A 0.32 0.32 0.0 0 0 457.76 360.54
  Q 452.49 354.15 450.02 345.48
  Q 447.77 337.53 450.01 328.99
  Q 450.51 327.09 451.13 326.54
  A 1.42 1.41 73.4 0 0 451.60 325.66
  Q 451.90 323.44 454.50 321.66
  A 1.00 1.00 0.0 0 1 456.06 322.42
  L 456.47 329.32
  A 1.86 1.60 40.6 0 0 456.51 329.58
  Q 459.08 337.88 461.14 341.24
  Q 472.60 359.85 494.55 363.73
  Q 498.43 364.42 502.40 364.35
  A 0.58 0.58 0.0 0 0 502.92 363.54
  Q 502.71 363.03 502.03 362.68
  Q 489.25 356.21 479.35 344.33
  A 0.91 0.91 0.0 0 1 479.25 343.32
  Q 479.86 342.20 480.96 341.82
  A 1.26 1.26 0.0 0 1 482.11 342.00
  Q 490.30 348.06 500.02 348.98
  Q 504.60 349.41 506.51 349.60
  Q 532.85 352.16 533.01 352.19
  Q 539.56 353.58 545.01 356.22
  Q 546.07 356.73 547.06 357.84
  A 0.42 0.42 0.0 0 0 547.80 357.56
  L 547.80 356.91
  A 1.86 1.84 25.8 0 0 547.39 355.75
  Q 541.20 348.18 536.88 345.11
  Q 527.01 338.11 517.12 331.13
  C 509.49 325.76 500.83 316.88 499.59 307.33
  A 0.55 0.54 9.2 0 1 500.37 306.77
  Q 509.41 311.20 520.32 313.42
  Q 542.79 317.99 550.50 319.99
  C 559.69 322.37 569.77 326.38 576.92 333.39
  C 579.07 335.51 580.62 338.42 582.56 341.62
  A 0.50 0.50 0.0 0 0 583.49 341.32
  Q 582.71 331.93 586.39 323.62
  C 590.86 313.55 595.77 304.83 596.30 294.80
  A 0.23 0.23 0.0 0 1 596.74 294.73
  C 599.09 301.35 603.05 309.20 603.83 316.74
  Q 604.17 320.02 602.80 322.91
  A 0.40 0.39 83.6 0 0 603.40 323.39
  Q 604.21 322.75 604.87 321.63
  C 614.30 305.41 618.65 284.12 608.44 267.25
  A 0.45 0.45 0.0 0 1 609.07 266.63
  Q 612.22 268.61 614.70 271.06
  Q 622.33 278.64 630.53 287.55
  A 0.50 0.49 49.9 0 0 631.20 287.61
  L 631.22 287.60
  A 0.49 0.49 0.0 0 0 631.33 286.95
  Q 620.36 269.40 617.99 249.14
  C 617.16 242.07 618.47 230.54 624.28 225.54
  Q 624.64 225.23 625.04 225.25
  A 0.55 0.54 -87.8 0 1 625.55 225.81
  C 625.33 238.80 633.77 246.47 642.20 255.53
  Q 647.79 261.54 651.27 268.18
  A 0.36 0.36 0.0 0 0 651.95 268.02
  C 652.14 256.17 645.09 244.42 641.37 232.40
  Q 640.13 228.40 639.75 222.13
  Q 639.20 213.21 639.54 204.97
  C 639.76 199.83 639.42 193.86 638.25 189.30
  A 0.41 0.40 0.5 0 1 638.75 188.81
  Q 644.93 190.50 647.30 196.71
  Q 651.18 206.84 657.50 218.24
  Q 661.86 226.09 667.69 239.13
  A 3.57 3.36 -62.9 0 1 667.97 240.10
  Q 668.72 245.78 671.38 245.21
  Z"
/>
<path fill="#923d00" d="
  M 235.07 380.69
  Q 235.37 382.40 236.80 380.80
  Q 238.27 379.14 239.27 377.59
  A 6.04 5.78 85.8 0 1 240.07 376.62
  Q 252.29 364.92 260.46 350.21
  A 0.68 0.68 0.0 0 1 261.71 350.38
  C 263.95 359.59 259.32 369.45 255.55 378.00
  A 0.73 0.73 0.0 0 0 256.49 378.97
  C 267.86 374.46 275.03 363.46 279.62 352.53
  Q 284.08 341.90 288.45 325.92
  Q 290.07 320.01 290.32 313.50
  Q 290.58 306.87 291.95 290.25
  C 292.46 284.10 293.68 275.34 301.69 275.38
  A 0.63 0.61 15.5 0 0 302.22 275.09
  Q 302.34 274.88 302.56 274.72
  Q 306.08 283.31 308.91 295.03
  Q 314.51 318.20 316.66 338.50
  Q 317.76 348.92 316.68 355.58
  C 314.61 368.37 307.64 381.58 299.24 391.69
  A 0.46 0.46 0.0 0 1 298.42 391.43
  Q 297.11 374.84 293.32 359.60
  Q 291.83 353.59 291.68 351.51
  A 0.53 0.52 -2.3 0 0 291.14 351.02
  L 291.12 351.02
  A 0.64 0.63 0.5 0 0 290.50 351.62
  Q 290.32 355.49 289.31 357.57
  Q 284.84 366.76 276.70 373.95
  C 265.42 383.91 251.53 392.82 240.05 398.81
  Q 225.56 406.38 220.84 408.95
  A 0.48 0.48 0.0 0 1 220.20 408.29
  C 222.23 404.71 225.80 399.53 228.23 394.62
  Q 231.67 387.66 235.07 380.69
  Z"
/>
<path fill="#ffffff" d="
  M 177.70 401.28
  Q 181.32 402.28 184.76 401.54
  L 188.99 401.01
  Q 200.92 399.73 204.98 398.46
  Q 210.40 396.76 213.46 398.25
  Q 207.16 404.23 201.84 407.36
  Q 175.07 423.11 144.44 420.60
  Q 135.82 419.89 128.87 417.60
  C 122.96 415.64 115.84 412.85 111.44 409.00
  A 0.31 0.31 0.0 0 1 111.59 408.46
  Q 113.35 408.18 113.76 408.24
  Q 128.54 410.35 142.47 409.92
  Q 148.99 409.72 154.31 407.57
  Q 155.35 407.15 155.59 406.14
  A 0.95 0.94 -77.4 0 0 154.87 405.00
  Q 152.59 404.53 149.74 404.71
  Q 140.70 405.31 133.17 402.84
  C 117.60 397.73 107.05 391.58 89.70 382.82
  C 75.19 375.49 59.86 371.26 44.02 368.15
  Q 39.24 367.21 30.18 368.45
  C 42.60 356.77 61.84 356.55 77.24 361.73
  A 1.40 1.39 -75.8 0 0 79.06 360.64
  C 81.16 348.61 69.15 340.59 60.59 334.97
  A 0.57 0.57 0.0 0 1 60.79 333.93
  Q 62.89 333.49 65.01 333.65
  C 77.52 334.63 88.63 340.56 100.24 344.75
  Q 112.95 349.33 117.83 350.64
  C 127.01 353.09 134.96 354.52 144.18 355.13
  C 155.23 355.87 163.93 350.41 171.98 343.44
  A 3.22 3.19 -62.5 0 1 174.38 342.67
  L 205.40 345.63
  A 0.51 0.51 0.0 0 1 205.86 346.10
  Q 206.07 349.28 204.24 352.98
  Q 199.91 361.73 195.09 369.09
  Q 184.61 385.11 173.61 399.34
  A 1.01 1.01 0.0 0 0 174.32 400.97
  L 177.70 401.28
  Z"
/>
<path fill="#c05d00" d="
  M 502.86 402.45
  A 0.33 0.33 0.0 0 1 502.45 402.88
  Q 482.80 397.33 466.47 389.07
  C 453.88 382.70 442.87 373.27 439.81 358.96
  Q 439.36 356.85 439.58 355.05
  A 0.47 0.47 0.0 0 1 440.37 354.78
  C 445.75 359.98 451.81 362.37 458.88 364.94
  A 9.59 9.54 77.5 0 1 462.40 367.19
  C 470.42 375.25 476.01 379.45 487.97 388.54
  Q 497.12 395.49 502.07 401.19
  Q 502.68 401.90 502.86 402.45
  Z"
/>
<path fill="#a2aeb3" d="
  M 213.46 398.25
  L 211.85 405.98
  A 1.85 1.72 66.2 0 1 211.68 406.47
  Q 207.32 415.67 200.55 423.56
  A 0.74 0.74 0.0 0 0 201.18 424.78
  Q 207.90 424.19 214.81 421.79
  C 233.15 415.43 248.95 407.60 269.15 396.90
  Q 277.14 392.68 284.77 387.67
  A 0.86 0.86 0.0 0 1 286.05 388.09
  Q 289.38 396.99 285.36 405.53
  Q 284.50 407.37 279.38 411.39
  Q 242.88 440.05 196.62 450.11
  C 174.56 454.91 149.15 455.37 129.38 445.75
  C 121.43 441.88 111.93 434.92 105.38 430.63
  Q 71.14 408.23 34.23 391.76
  Q 26.15 388.16 18.62 385.72
  A 1.03 1.03 0.0 0 1 18.00 384.32
  Q 22.41 374.54 30.18 368.45
  Q 39.24 367.21 44.02 368.15
  C 59.86 371.26 75.19 375.49 89.70 382.82
  C 107.05 391.58 117.60 397.73 133.17 402.84
  Q 140.70 405.31 149.74 404.71
  Q 152.59 404.53 154.87 405.00
  A 0.95 0.94 -77.4 0 1 155.59 406.14
  Q 155.35 407.15 154.31 407.57
  Q 148.99 409.72 142.47 409.92
  Q 128.54 410.35 113.76 408.24
  Q 113.35 408.18 111.59 408.46
  A 0.31 0.31 0.0 0 0 111.44 409.00
  C 115.84 412.85 122.96 415.64 128.87 417.60
  Q 135.82 419.89 144.44 420.60
  Q 175.07 423.11 201.84 407.36
  Q 207.16 404.23 213.46 398.25
  Z"
/>
<path fill="#c05d00" d="
  M 188.99 401.01
  L 184.76 401.54
  L 178.25 401.24
  L 188.99 401.01
  Z"
/>
<path fill="#a2aeb3" d="
  M 178.25 401.24
  L 184.76 401.54
  Q 181.32 402.28 177.70 401.28
  L 178.25 401.24
  Z"
/>
</svg>
